<?xml version="1.0" encoding="UTF-8"?>
<svg xmlns="http://www.w3.org/2000/svg"
     xmlns:xlink="http://www.w3.org/1999/xlink"
     xmlns:gadfly="http://www.gadflyjl.org/ns"
     version="1.2"
     width="141.42mm" height="100mm" viewBox="0 0 141.42 100"
     stroke="none"
     fill="#000000"
     stroke-width="0.3"
     font-size="3.88"
>
<g class="plotroot xscalable yscalable" id="img-729bf4c8-1">
  <g font-size="3.88" font-family="'PT Sans','Helvetica Neue','Helvetica',sans-serif" fill="#564A55" stroke="#000000" stroke-opacity="0.000" id="img-729bf4c8-2">
    <text x="74.61" y="88.39" text-anchor="middle" dy="0.6em">Hours of day</text>
  </g>
  <g class="guide xlabels" font-size="2.82" font-family="'PT Sans Caption','Helvetica Neue','Helvetica',sans-serif" fill="#6C606B" id="img-729bf4c8-3">
    <text x="28.72" y="81.72" text-anchor="middle" dy="0.6em">0</text>
    <text x="47.08" y="81.72" text-anchor="middle" dy="0.6em">5</text>
    <text x="65.44" y="81.72" text-anchor="middle" dy="0.6em">10</text>
    <text x="83.79" y="81.72" text-anchor="middle" dy="0.6em">15</text>
    <text x="102.15" y="81.72" text-anchor="middle" dy="0.6em">20</text>
    <text x="120.5" y="81.72" text-anchor="middle" dy="0.6em">25</text>
  </g>
  <g class="guide colorkey" id="img-729bf4c8-4">
    <g fill="#4C404B" font-size="2.82" font-family="'PT Sans','Helvetica Neue','Helvetica',sans-serif" id="img-729bf4c8-5">
      <text x="126.31" y="45.66" dy="0.35em">Vendor1</text>
      <text x="126.31" y="49.29" dy="0.35em">Vendor2</text>
    </g>
    <g stroke="#000000" stroke-opacity="0.000" id="img-729bf4c8-6">
      <rect x="123.5" y="44.76" width="1.81" height="1.81" fill="#0000FF"/>
      <rect x="123.5" y="48.38" width="1.81" height="1.81" fill="#800080"/>
    </g>
    <g fill="#362A35" font-size="3.88" font-family="'PT Sans','Helvetica Neue','Helvetica',sans-serif" stroke="#000000" stroke-opacity="0.000" id="img-729bf4c8-7">
      <text x="123.5" y="41.84">Legend</text>
    </g>
  </g>
<g clip-path="url(#img-729bf4c8-8)">
  <g id="img-729bf4c8-9">
    <g pointer-events="visible" opacity="1" fill="#000000" fill-opacity="0.000" stroke="#000000" stroke-opacity="0.000" class="guide background" id="img-729bf4c8-10">
      <rect x="26.72" y="10.61" width="95.78" height="70.1"/>
    </g>
    <g class="guide ygridlines xfixed" stroke-dasharray="0.5,0.5" stroke-width="0.2" stroke="#D0D0E0" id="img-729bf4c8-11">
      <path fill="none" d="M26.72,78.72 L 122.5 78.72"/>
      <path fill="none" d="M26.72,65.49 L 122.5 65.49"/>
      <path fill="none" d="M26.72,52.27 L 122.5 52.27"/>
      <path fill="none" d="M26.72,39.05 L 122.5 39.05"/>
      <path fill="none" d="M26.72,25.83 L 122.5 25.83"/>
      <path fill="none" d="M26.72,12.61 L 122.5 12.61"/>
    </g>
    <g class="guide xgridlines yfixed" stroke-dasharray="0.5,0.5" stroke-width="0.2" stroke="#D0D0E0" id="img-729bf4c8-12">
      <path fill="none" d="M28.72,10.61 L 28.72 80.72"/>
      <path fill="none" d="M47.08,10.61 L 47.08 80.72"/>
      <path fill="none" d="M65.44,10.61 L 65.44 80.72"/>
      <path fill="none" d="M83.79,10.61 L 83.79 80.72"/>
      <path fill="none" d="M102.15,10.61 L 102.15 80.72"/>
      <path fill="none" d="M120.5,10.61 L 120.5 80.72"/>
    </g>
    <g class="plotpanel" id="img-729bf4c8-13">
      <g stroke-width="0.3" fill="#000000" fill-opacity="0.000" class="geometry" stroke-dasharray="none" stroke="#800080" id="img-729bf4c8-14">
        <path fill="none" d="M32.4,46.37 L 36.07 54.58 39.74 60.88 43.41 65.69 47.08 69.37 50.75 70.51 54.42 61.89 58.09 48.68 61.76 40.52 65.44 38.68 69.11 39.39 72.78 37.19 76.45 34.7 80.12 35 83.79 33.38 87.46 34.39 91.13 38.32 94.8 31.19 98.48 22.27 102.15 22.11 105.82 27.41 109.49 29.23 113.16 30.91 116.83 37.62"/>
      </g>
      <g stroke-width="0.3" fill="#000000" fill-opacity="0.000" class="geometry" stroke-dasharray="none" stroke="#0000FF" id="img-729bf4c8-15">
        <path fill="none" d="M32.4,48.93 L 36.07 55.9 39.74 61.1 43.41 65.49 47.08 69.12 50.75 70.07 54.42 60.05 58.09 48.44 61.76 42.63 65.44 42.07 69.11 42.97 72.78 41.38 76.45 38.45 80.12 38.4 83.79 36.94 87.46 37.28 91.13 42.88 94.8 37.82 98.48 29.45 102.15 28.86 105.82 32.98 109.49 34.13 113.16 35.7 116.83 41.49"/>
      </g>
      <g class="geometry" id="img-729bf4c8-16">
        <g class="color_RGBA{Float32}(0.0f0,0.0f0,1.0f0,1.0f0)" stroke="#FFFFFF" stroke-width="0.3" fill="#0000FF" id="img-729bf4c8-17">
          <use xlink:href="#img-729bf4c8-18" x="32.4" y="48.93"/>
          <use xlink:href="#img-729bf4c8-18" x="36.07" y="55.9"/>
          <use xlink:href="#img-729bf4c8-18" x="39.74" y="61.1"/>
          <use xlink:href="#img-729bf4c8-18" x="43.41" y="65.49"/>
          <use xlink:href="#img-729bf4c8-18" x="47.08" y="69.12"/>
          <use xlink:href="#img-729bf4c8-18" x="50.75" y="70.07"/>
          <use xlink:href="#img-729bf4c8-18" x="54.42" y="60.05"/>
          <use xlink:href="#img-729bf4c8-18" x="58.09" y="48.44"/>
          <use xlink:href="#img-729bf4c8-18" x="61.76" y="42.63"/>
          <use xlink:href="#img-729bf4c8-18" x="65.44" y="42.07"/>
          <use xlink:href="#img-729bf4c8-18" x="69.11" y="42.97"/>
          <use xlink:href="#img-729bf4c8-18" x="72.78" y="41.38"/>
          <use xlink:href="#img-729bf4c8-18" x="76.45" y="38.45"/>
          <use xlink:href="#img-729bf4c8-18" x="80.12" y="38.4"/>
          <use xlink:href="#img-729bf4c8-18" x="83.79" y="36.94"/>
          <use xlink:href="#img-729bf4c8-18" x="87.46" y="37.28"/>
          <use xlink:href="#img-729bf4c8-18" x="91.13" y="42.88"/>
          <use xlink:href="#img-729bf4c8-18" x="94.8" y="37.82"/>
          <use xlink:href="#img-729bf4c8-18" x="98.48" y="29.45"/>
          <use xlink:href="#img-729bf4c8-18" x="102.15" y="28.86"/>
          <use xlink:href="#img-729bf4c8-18" x="105.82" y="32.98"/>
          <use xlink:href="#img-729bf4c8-18" x="109.49" y="34.13"/>
          <use xlink:href="#img-729bf4c8-18" x="113.16" y="35.7"/>
          <use xlink:href="#img-729bf4c8-18" x="116.83" y="41.49"/>
        </g>
      </g>
      <g class="geometry" id="img-729bf4c8-19">
        <g class="color_RGBA{Float32}(0.5019608f0,0.0f0,0.5019608f0,1.0f0)" stroke="#FFFFFF" stroke-width="0.3" fill="#800080" id="img-729bf4c8-20">
          <use xlink:href="#img-729bf4c8-21" x="32.4" y="46.37"/>
          <use xlink:href="#img-729bf4c8-21" x="36.07" y="54.58"/>
          <use xlink:href="#img-729bf4c8-21" x="39.74" y="60.88"/>
          <use xlink:href="#img-729bf4c8-21" x="43.41" y="65.69"/>
          <use xlink:href="#img-729bf4c8-21" x="47.08" y="69.37"/>
          <use xlink:href="#img-729bf4c8-21" x="50.75" y="70.51"/>
          <use xlink:href="#img-729bf4c8-21" x="54.42" y="61.89"/>
          <use xlink:href="#img-729bf4c8-21" x="58.09" y="48.68"/>
          <use xlink:href="#img-729bf4c8-21" x="61.76" y="40.52"/>
          <use xlink:href="#img-729bf4c8-21" x="65.44" y="38.68"/>
          <use xlink:href="#img-729bf4c8-21" x="69.11" y="39.39"/>
          <use xlink:href="#img-729bf4c8-21" x="72.78" y="37.19"/>
          <use xlink:href="#img-729bf4c8-21" x="76.45" y="34.7"/>
          <use xlink:href="#img-729bf4c8-21" x="80.12" y="35"/>
          <use xlink:href="#img-729bf4c8-21" x="83.79" y="33.38"/>
          <use xlink:href="#img-729bf4c8-21" x="87.46" y="34.39"/>
          <use xlink:href="#img-729bf4c8-21" x="91.13" y="38.32"/>
          <use xlink:href="#img-729bf4c8-21" x="94.8" y="31.19"/>
          <use xlink:href="#img-729bf4c8-21" x="98.48" y="22.27"/>
          <use xlink:href="#img-729bf4c8-21" x="102.15" y="22.11"/>
          <use xlink:href="#img-729bf4c8-21" x="105.82" y="27.41"/>
          <use xlink:href="#img-729bf4c8-21" x="109.49" y="29.23"/>
          <use xlink:href="#img-729bf4c8-21" x="113.16" y="30.91"/>
          <use xlink:href="#img-729bf4c8-21" x="116.83" y="37.62"/>
        </g>
      </g>
    </g>
  </g>
</g>
  <g class="guide ylabels" font-size="2.82" font-family="'PT Sans Caption','Helvetica Neue','Helvetica',sans-serif" fill="#6C606B" id="img-729bf4c8-22">
    <text x="25.72" y="78.72" text-anchor="end" dy="0.35em">0</text>
    <text x="25.72" y="65.49" text-anchor="end" dy="0.35em">1.0×10⁵</text>
    <text x="25.72" y="52.27" text-anchor="end" dy="0.35em">2.0×10⁵</text>
    <text x="25.72" y="39.05" text-anchor="end" dy="0.35em">3.0×10⁵</text>
    <text x="25.72" y="25.83" text-anchor="end" dy="0.35em">4.0×10⁵</text>
    <text x="25.72" y="12.61" text-anchor="end" dy="0.35em">5.0×10⁵</text>
  </g>
  <g font-size="3.88" font-family="'PT Sans','Helvetica Neue','Helvetica',sans-serif" fill="#564A55" stroke="#000000" stroke-opacity="0.000" id="img-729bf4c8-23">
    <text x="8.81" y="43.66" text-anchor="middle" dy="0.35em" transform="rotate(-90, 8.81, 45.66)">No of vehicles</text>
  </g>
  <g font-size="3.88" font-family="'PT Sans','Helvetica Neue','Helvetica',sans-serif" fill="#564A55" stroke="#000000" stroke-opacity="0.000" id="img-729bf4c8-24">
    <text x="74.61" y="5" text-anchor="middle" dy="0.6em">Vendor 1 vs Vendor 2 (Per Hour)</text>
  </g>
</g>
<defs>
  <clipPath id="img-729bf4c8-8">
  <path d="M26.72,10.61 L 122.5 10.61 122.5 80.72 26.72 80.72" />
</clipPath>
  <g id="img-729bf4c8-18">
    <circle cx="0" cy="0" r="0.9"/>
  </g>
  <g id="img-729bf4c8-21">
    <circle cx="0" cy="0" r="0.9"/>
  </g>
</defs>
</svg>
