<?xml version="1.0" encoding="UTF-8"?>
<svg xmlns="http://www.w3.org/2000/svg"
     xmlns:xlink="http://www.w3.org/1999/xlink"
     xmlns:gadfly="http://www.gadflyjl.org/ns"
     version="1.2"
     width="141.42mm" height="100mm" viewBox="0 0 141.42 100"
     stroke="none"
     fill="#000000"
     stroke-width="0.3"
     font-size="3.88"
>
<g class="plotroot xscalable yscalable" id="img-5d8995f1-1">
  <g font-size="3.88" font-family="'PT Sans','Helvetica Neue','Helvetica',sans-serif" fill="#564A55" stroke="#000000" stroke-opacity="0.000" id="img-5d8995f1-2">
    <text x="73.44" y="88.39" text-anchor="middle" dy="0.6em">Hours of day</text>
  </g>
  <g class="guide xlabels" font-size="2.82" font-family="'PT Sans Caption','Helvetica Neue','Helvetica',sans-serif" fill="#6C606B" id="img-5d8995f1-3">
    <text x="26.38" y="81.72" text-anchor="middle" dy="0.6em">0</text>
    <text x="45.2" y="81.72" text-anchor="middle" dy="0.6em">5</text>
    <text x="64.03" y="81.72" text-anchor="middle" dy="0.6em">10</text>
    <text x="82.85" y="81.72" text-anchor="middle" dy="0.6em">15</text>
    <text x="101.68" y="81.72" text-anchor="middle" dy="0.6em">20</text>
    <text x="120.5" y="81.72" text-anchor="middle" dy="0.6em">25</text>
  </g>
  <g class="guide colorkey" id="img-5d8995f1-4">
    <g fill="#4C404B" font-size="2.82" font-family="'PT Sans','Helvetica Neue','Helvetica',sans-serif" id="img-5d8995f1-5">
      <text x="126.31" y="45.66" dy="0.35em">Vendor1</text>
      <text x="126.31" y="49.29" dy="0.35em">Vendor2</text>
    </g>
    <g stroke="#000000" stroke-opacity="0.000" id="img-5d8995f1-6">
      <rect x="123.5" y="44.76" width="1.81" height="1.81" fill="#0000FF"/>
      <rect x="123.5" y="48.38" width="1.81" height="1.81" fill="#800080"/>
    </g>
    <g fill="#362A35" font-size="3.88" font-family="'PT Sans','Helvetica Neue','Helvetica',sans-serif" stroke="#000000" stroke-opacity="0.000" id="img-5d8995f1-7">
      <text x="123.5" y="41.84">Legend</text>
    </g>
  </g>
<g clip-path="url(#img-5d8995f1-8)">
  <g id="img-5d8995f1-9">
    <g pointer-events="visible" opacity="1" fill="#000000" fill-opacity="0.000" stroke="#000000" stroke-opacity="0.000" class="guide background" id="img-5d8995f1-10">
      <rect x="24.38" y="10.61" width="98.12" height="70.1"/>
    </g>
    <g class="guide ygridlines xfixed" stroke-dasharray="0.5,0.5" stroke-width="0.2" stroke="#D0D0E0" id="img-5d8995f1-11">
      <path fill="none" d="M24.38,78.72 L 122.5 78.72"/>
      <path fill="none" d="M24.38,62.19 L 122.5 62.19"/>
      <path fill="none" d="M24.38,45.66 L 122.5 45.66"/>
      <path fill="none" d="M24.38,29.14 L 122.5 29.14"/>
      <path fill="none" d="M24.38,12.61 L 122.5 12.61"/>
    </g>
    <g class="guide xgridlines yfixed" stroke-dasharray="0.5,0.5" stroke-width="0.2" stroke="#D0D0E0" id="img-5d8995f1-12">
      <path fill="none" d="M26.38,10.61 L 26.38 80.72"/>
      <path fill="none" d="M45.2,10.61 L 45.2 80.72"/>
      <path fill="none" d="M64.03,10.61 L 64.03 80.72"/>
      <path fill="none" d="M82.85,10.61 L 82.85 80.72"/>
      <path fill="none" d="M101.68,10.61 L 101.68 80.72"/>
      <path fill="none" d="M120.5,10.61 L 120.5 80.72"/>
    </g>
    <g class="plotpanel" id="img-5d8995f1-13">
      <g stroke-width="0.3" fill="#000000" fill-opacity="0.000" class="geometry" stroke-dasharray="none" stroke="#800080" id="img-5d8995f1-14">
        <path fill="none" d="M30.14,58.32 L 33.91 65.52 37.67 69.84 41.44 72.28 45.2 73.12 48.97 71.35 52.73 60.72 56.5 45.58 60.26 38.17 64.03 39.84 67.79 44.07 71.56 44.05 75.32 42.62 79.09 43 82.85 40.31 86.62 41.28 90.38 45.3 94.15 37.6 97.91 28.32 101.68 27.75 105.44 31.62 109.21 33 112.97 35.8 116.74 43.61"/>
      </g>
      <g class="geometry" id="img-5d8995f1-15">
        <g class="color_RGBA{Float32}(0.0f0,0.0f0,1.0f0,1.0f0)" stroke="#FFFFFF" stroke-width="0.3" fill="#0000FF" id="img-5d8995f1-16">
          <use xlink:href="#img-5d8995f1-17" x="30.14" y="53.48"/>
          <use xlink:href="#img-5d8995f1-17" x="33.91" y="59.88"/>
          <use xlink:href="#img-5d8995f1-17" x="37.67" y="64.07"/>
          <use xlink:href="#img-5d8995f1-17" x="41.44" y="68.11"/>
          <use xlink:href="#img-5d8995f1-17" x="45.2" y="71.06"/>
          <use xlink:href="#img-5d8995f1-17" x="48.97" y="71.87"/>
          <use xlink:href="#img-5d8995f1-17" x="52.73" y="63.82"/>
          <use xlink:href="#img-5d8995f1-17" x="56.5" y="53.67"/>
          <use xlink:href="#img-5d8995f1-17" x="60.26" y="49.09"/>
          <use xlink:href="#img-5d8995f1-17" x="64.03" y="46.65"/>
          <use xlink:href="#img-5d8995f1-17" x="67.79" y="48.12"/>
          <use xlink:href="#img-5d8995f1-17" x="71.56" y="46.1"/>
          <use xlink:href="#img-5d8995f1-17" x="75.32" y="43.56"/>
          <use xlink:href="#img-5d8995f1-17" x="79.09" y="43.28"/>
          <use xlink:href="#img-5d8995f1-17" x="82.85" y="42.8"/>
          <use xlink:href="#img-5d8995f1-17" x="86.62" y="43.27"/>
          <use xlink:href="#img-5d8995f1-17" x="90.38" y="47.35"/>
          <use xlink:href="#img-5d8995f1-17" x="94.15" y="41.83"/>
          <use xlink:href="#img-5d8995f1-17" x="97.91" y="33.9"/>
          <use xlink:href="#img-5d8995f1-17" x="101.68" y="35.83"/>
          <use xlink:href="#img-5d8995f1-17" x="105.44" y="38.4"/>
          <use xlink:href="#img-5d8995f1-17" x="109.21" y="40.05"/>
          <use xlink:href="#img-5d8995f1-17" x="112.97" y="40.94"/>
          <use xlink:href="#img-5d8995f1-17" x="116.74" y="46.14"/>
        </g>
      </g>
      <g class="geometry" id="img-5d8995f1-18">
        <g class="color_RGBA{Float32}(0.5019608f0,0.0f0,0.5019608f0,1.0f0)" stroke="#FFFFFF" stroke-width="0.3" fill="#800080" id="img-5d8995f1-19">
          <use xlink:href="#img-5d8995f1-20" x="30.14" y="58.32"/>
          <use xlink:href="#img-5d8995f1-20" x="33.91" y="65.52"/>
          <use xlink:href="#img-5d8995f1-20" x="37.67" y="69.84"/>
          <use xlink:href="#img-5d8995f1-20" x="41.44" y="72.28"/>
          <use xlink:href="#img-5d8995f1-20" x="45.2" y="73.12"/>
          <use xlink:href="#img-5d8995f1-20" x="48.97" y="71.35"/>
          <use xlink:href="#img-5d8995f1-20" x="52.73" y="60.72"/>
          <use xlink:href="#img-5d8995f1-20" x="56.5" y="45.58"/>
          <use xlink:href="#img-5d8995f1-20" x="60.26" y="38.17"/>
          <use xlink:href="#img-5d8995f1-20" x="64.03" y="39.84"/>
          <use xlink:href="#img-5d8995f1-20" x="67.79" y="44.07"/>
          <use xlink:href="#img-5d8995f1-20" x="71.56" y="44.05"/>
          <use xlink:href="#img-5d8995f1-20" x="75.32" y="42.62"/>
          <use xlink:href="#img-5d8995f1-20" x="79.09" y="43"/>
          <use xlink:href="#img-5d8995f1-20" x="82.85" y="40.31"/>
          <use xlink:href="#img-5d8995f1-20" x="86.62" y="41.28"/>
          <use xlink:href="#img-5d8995f1-20" x="90.38" y="45.3"/>
          <use xlink:href="#img-5d8995f1-20" x="94.15" y="37.6"/>
          <use xlink:href="#img-5d8995f1-20" x="97.91" y="28.32"/>
          <use xlink:href="#img-5d8995f1-20" x="101.68" y="27.75"/>
          <use xlink:href="#img-5d8995f1-20" x="105.44" y="31.62"/>
          <use xlink:href="#img-5d8995f1-20" x="109.21" y="33"/>
          <use xlink:href="#img-5d8995f1-20" x="112.97" y="35.8"/>
          <use xlink:href="#img-5d8995f1-20" x="116.74" y="43.61"/>
        </g>
      </g>
      <g stroke-width="0.3" fill="#000000" fill-opacity="0.000" class="geometry" stroke-dasharray="none" stroke="#0000FF" id="img-5d8995f1-21">
        <path fill="none" d="M30.14,53.48 L 33.91 59.88 37.67 64.07 41.44 68.11 45.2 71.06 48.97 71.87 52.73 63.82 56.5 53.67 60.26 49.09 64.03 46.65 67.79 48.12 71.56 46.1 75.32 43.56 79.09 43.28 82.85 42.8 86.62 43.27 90.38 47.35 94.15 41.83 97.91 33.9 101.68 35.83 105.44 38.4 109.21 40.05 112.97 40.94 116.74 46.14"/>
      </g>
    </g>
  </g>
</g>
  <g class="guide ylabels" font-size="2.82" font-family="'PT Sans Caption','Helvetica Neue','Helvetica',sans-serif" fill="#6C606B" id="img-5d8995f1-22">
    <text x="23.38" y="78.72" text-anchor="end" dy="0.35em">0</text>
    <text x="23.38" y="62.19" text-anchor="end" dy="0.35em">1×10⁵</text>
    <text x="23.38" y="45.66" text-anchor="end" dy="0.35em">2×10⁵</text>
    <text x="23.38" y="29.14" text-anchor="end" dy="0.35em">3×10⁵</text>
    <text x="23.38" y="12.61" text-anchor="end" dy="0.35em">4×10⁵</text>
  </g>
  <g font-size="3.88" font-family="'PT Sans','Helvetica Neue','Helvetica',sans-serif" fill="#564A55" stroke="#000000" stroke-opacity="0.000" id="img-5d8995f1-23">
    <text x="8.81" y="43.66" text-anchor="middle" dy="0.35em" transform="rotate(-90, 8.81, 45.66)">No of vehicles</text>
  </g>
  <g font-size="3.88" font-family="'PT Sans','Helvetica Neue','Helvetica',sans-serif" fill="#564A55" stroke="#000000" stroke-opacity="0.000" id="img-5d8995f1-24">
    <text x="73.44" y="5" text-anchor="middle" dy="0.6em">Weekdays comparison of Vendor 1 vs Vendor 2 (Per Hour)</text>
  </g>
</g>
<defs>
  <clipPath id="img-5d8995f1-8">
  <path d="M24.38,10.61 L 122.5 10.61 122.5 80.72 24.38 80.72" />
</clipPath>
  <g id="img-5d8995f1-17">
    <circle cx="0" cy="0" r="0.9"/>
  </g>
  <g id="img-5d8995f1-20">
    <circle cx="0" cy="0" r="0.9"/>
  </g>
</defs>
</svg>
