<?xml version="1.0" encoding="UTF-8"?>
<svg xmlns="http://www.w3.org/2000/svg"
     xmlns:xlink="http://www.w3.org/1999/xlink"
     xmlns:gadfly="http://www.gadflyjl.org/ns"
     version="1.2"
     width="141.42mm" height="100mm" viewBox="0 0 141.42 100"
     stroke="none"
     fill="#000000"
     stroke-width="0.3"
     font-size="3.88"
>
<g class="plotroot yscalable" id="img-56b9580f-1">
  <g font-size="3.88" font-family="'PT Sans','Helvetica Neue','Helvetica',sans-serif" fill="#564A55" stroke="#000000" stroke-opacity="0.000" id="img-56b9580f-2">
    <text x="74.61" y="88.39" text-anchor="middle" dy="0.6em">Month</text>
  </g>
  <g class="guide xlabels" font-size="2.82" font-family="'PT Sans Caption','Helvetica Neue','Helvetica',sans-serif" fill="#6C606B" id="img-56b9580f-3">
    <text x="28.38" y="74.77" text-anchor="end" dy="0.35em" transform="rotate(-90, 28.38, 74.77)">Aug'13</text>
    <text x="31.68" y="74.77" text-anchor="end" dy="0.35em" transform="rotate(-90, 31.68, 74.77)">sep'13</text>
    <text x="34.98" y="74.77" text-anchor="end" dy="0.35em" transform="rotate(-90, 34.98, 74.77)">Oct'13</text>
    <text x="38.28" y="74.77" text-anchor="end" dy="0.35em" transform="rotate(-90, 38.28, 74.77)">Nov'13</text>
    <text x="41.59" y="74.77" text-anchor="end" dy="0.35em" transform="rotate(-90, 41.59, 74.77)">Dec'13</text>
    <text x="44.89" y="74.77" text-anchor="end" dy="0.35em" transform="rotate(-90, 44.89, 74.77)">Jan'14</text>
    <text x="48.19" y="74.77" text-anchor="end" dy="0.35em" transform="rotate(-90, 48.19, 74.77)">Feb'14</text>
    <text x="51.49" y="74.77" text-anchor="end" dy="0.35em" transform="rotate(-90, 51.49, 74.77)">Mar'14</text>
    <text x="54.8" y="74.77" text-anchor="end" dy="0.35em" transform="rotate(-90, 54.8, 74.77)">Apr'14</text>
    <text x="58.1" y="74.77" text-anchor="end" dy="0.35em" transform="rotate(-90, 58.1, 74.77)">May'14</text>
    <text x="61.4" y="74.77" text-anchor="end" dy="0.35em" transform="rotate(-90, 61.4, 74.77)">Jun'14</text>
    <text x="64.71" y="74.77" text-anchor="end" dy="0.35em" transform="rotate(-90, 64.71, 74.77)">July'14</text>
    <text x="68.01" y="74.77" text-anchor="end" dy="0.35em" transform="rotate(-90, 68.01, 74.77)">Aug'14</text>
    <text x="71.31" y="74.77" text-anchor="end" dy="0.35em" transform="rotate(-90, 71.31, 74.77)">sep'14</text>
    <text x="74.61" y="74.77" text-anchor="end" dy="0.35em" transform="rotate(-90, 74.61, 74.77)">Oct'14</text>
    <text x="77.92" y="74.77" text-anchor="end" dy="0.35em" transform="rotate(-90, 77.92, 74.77)">Nov'14</text>
    <text x="81.22" y="74.77" text-anchor="end" dy="0.35em" transform="rotate(-90, 81.22, 74.77)">Dec'14</text>
    <text x="84.52" y="74.77" text-anchor="end" dy="0.35em" transform="rotate(-90, 84.52, 74.77)">Jan'15</text>
    <text x="87.82" y="74.77" text-anchor="end" dy="0.35em" transform="rotate(-90, 87.82, 74.77)">Feb'15</text>
    <text x="91.13" y="74.77" text-anchor="end" dy="0.35em" transform="rotate(-90, 91.13, 74.77)">Mar'15</text>
    <text x="94.43" y="74.77" text-anchor="end" dy="0.35em" transform="rotate(-90, 94.43, 74.77)">Apr'15</text>
    <text x="97.73" y="74.77" text-anchor="end" dy="0.35em" transform="rotate(-90, 97.73, 74.77)">May'15</text>
    <text x="101.03" y="74.77" text-anchor="end" dy="0.35em" transform="rotate(-90, 101.03, 74.77)">Jun'15</text>
    <text x="104.34" y="74.77" text-anchor="end" dy="0.35em" transform="rotate(-90, 104.34, 74.77)">July'15</text>
    <text x="107.64" y="74.77" text-anchor="end" dy="0.35em" transform="rotate(-90, 107.64, 74.77)">Aug'15</text>
    <text x="110.94" y="74.77" text-anchor="end" dy="0.35em" transform="rotate(-90, 110.94, 74.77)">sep'15</text>
    <text x="114.24" y="74.77" text-anchor="end" dy="0.35em" transform="rotate(-90, 114.24, 74.77)">Oct'15</text>
    <text x="117.55" y="74.77" text-anchor="end" dy="0.35em" transform="rotate(-90, 117.55, 74.77)">Nov'15</text>
    <text x="120.85" y="74.77" text-anchor="end" dy="0.35em" transform="rotate(-90, 120.85, 74.77)">Dec'15</text>
  </g>
  <g class="guide colorkey" id="img-56b9580f-4">
    <g fill="#4C404B" font-size="2.82" font-family="'PT Sans','Helvetica Neue','Helvetica',sans-serif" id="img-56b9580f-5">
      <text x="126.31" y="42.19" dy="0.35em">Vendor1</text>
      <text x="126.31" y="45.82" dy="0.35em">Vendor2</text>
    </g>
    <g stroke="#000000" stroke-opacity="0.000" id="img-56b9580f-6">
      <rect x="123.5" y="41.28" width="1.81" height="1.81" fill="#0000FF"/>
      <rect x="123.5" y="44.91" width="1.81" height="1.81" fill="#800080"/>
    </g>
    <g fill="#362A35" font-size="3.88" font-family="'PT Sans','Helvetica Neue','Helvetica',sans-serif" stroke="#000000" stroke-opacity="0.000" id="img-56b9580f-7">
      <text x="123.5" y="38.37">Legend</text>
    </g>
  </g>
<g clip-path="url(#img-56b9580f-8)">
  <g id="img-56b9580f-9">
    <g pointer-events="visible" opacity="1" fill="#000000" fill-opacity="0.000" stroke="#000000" stroke-opacity="0.000" class="guide background" id="img-56b9580f-10">
      <rect x="26.73" y="10.61" width="95.78" height="63.16"/>
    </g>
    <g class="guide ygridlines xfixed" stroke-dasharray="0.5,0.5" stroke-width="0.2" stroke="#D0D0E0" id="img-56b9580f-11">
      <path fill="none" d="M26.73,71.77 L 122.5 71.77"/>
      <path fill="none" d="M26.73,52.05 L 122.5 52.05"/>
      <path fill="none" d="M26.73,32.33 L 122.5 32.33"/>
      <path fill="none" d="M26.73,12.61 L 122.5 12.61"/>
    </g>
    <g class="guide xgridlines yfixed" stroke-dasharray="0.5,0.5" stroke-width="0.2" stroke="#D0D0E0" id="img-56b9580f-12">
      <path fill="none" d="M30.03,10.61 L 30.03 73.77"/>
      <path fill="none" d="M33.33,10.61 L 33.33 73.77"/>
      <path fill="none" d="M36.63,10.61 L 36.63 73.77"/>
      <path fill="none" d="M39.94,10.61 L 39.94 73.77"/>
      <path fill="none" d="M43.24,10.61 L 43.24 73.77"/>
      <path fill="none" d="M46.54,10.61 L 46.54 73.77"/>
      <path fill="none" d="M49.84,10.61 L 49.84 73.77"/>
      <path fill="none" d="M53.15,10.61 L 53.15 73.77"/>
      <path fill="none" d="M56.45,10.61 L 56.45 73.77"/>
      <path fill="none" d="M59.75,10.61 L 59.75 73.77"/>
      <path fill="none" d="M63.05,10.61 L 63.05 73.77"/>
      <path fill="none" d="M66.36,10.61 L 66.36 73.77"/>
      <path fill="none" d="M69.66,10.61 L 69.66 73.77"/>
      <path fill="none" d="M72.96,10.61 L 72.96 73.77"/>
      <path fill="none" d="M76.26,10.61 L 76.26 73.77"/>
      <path fill="none" d="M79.57,10.61 L 79.57 73.77"/>
      <path fill="none" d="M82.87,10.61 L 82.87 73.77"/>
      <path fill="none" d="M86.17,10.61 L 86.17 73.77"/>
      <path fill="none" d="M89.48,10.61 L 89.48 73.77"/>
      <path fill="none" d="M92.78,10.61 L 92.78 73.77"/>
      <path fill="none" d="M96.08,10.61 L 96.08 73.77"/>
      <path fill="none" d="M99.38,10.61 L 99.38 73.77"/>
      <path fill="none" d="M102.69,10.61 L 102.69 73.77"/>
      <path fill="none" d="M105.99,10.61 L 105.99 73.77"/>
      <path fill="none" d="M109.29,10.61 L 109.29 73.77"/>
      <path fill="none" d="M112.59,10.61 L 112.59 73.77"/>
      <path fill="none" d="M115.9,10.61 L 115.9 73.77"/>
      <path fill="none" d="M119.2,10.61 L 119.2 73.77"/>
    </g>
    <g class="plotpanel" id="img-56b9580f-13">
      <g stroke-width="0.3" fill="#000000" fill-opacity="0.000" class="geometry" stroke-dasharray="none" stroke="#800080" id="img-56b9580f-14">
        <path fill="none" d="M28.38,71.49 L 31.68 70.02 34.98 66.12 38.28 59.64 41.59 53.86 44.89 47.77 48.19 41.28 51.49 32.33 54.8 31.44 58.1 27.75 61.4 30.34 64.71 32.45 68.01 30.15 71.31 29.88 74.61 25.92 77.92 24.25 81.22 21.18 84.52 25.48 87.82 23.32 91.13 18.86 94.43 20.74 97.73 16.69 101.03 21.14 104.34 24.14 107.64 24.47 110.94 25.66 114.24 21.6 117.55 24.58 120.85 22.1"/>
      </g>
      <g stroke-width="0.3" fill="#000000" fill-opacity="0.000" class="geometry" stroke-dasharray="none" stroke="#0000FF" id="img-56b9580f-15">
        <path fill="none" d="M28.38,71.75 L 31.68 71.56 34.98 70.71 38.28 68.87 41.59 65.91 44.89 64.06 48.19 62.61 51.49 60.19 54.8 60.47 58.1 59.72 61.4 60.44 64.71 60.84 68.01 60.35 71.31 59.95 74.61 58.8 77.92 58.23 81.22 57.45 84.52 58.57 87.82 58.1 91.13 56.74 94.43 57.16 97.73 56.37 101.03 57.76 104.34 58.6 107.64 58.64 110.94 58.92 114.24 57.63 117.55 58.62 120.85 58.01"/>
      </g>
      <g class="geometry" id="img-56b9580f-16">
        <g class="color_RGBA{Float32}(0.0f0,0.0f0,1.0f0,1.0f0)" stroke="#FFFFFF" stroke-width="0.3" fill="#0000FF" id="img-56b9580f-17">
          <use xlink:href="#img-56b9580f-18" x="28.38" y="71.75"/>
          <use xlink:href="#img-56b9580f-18" x="31.68" y="71.56"/>
          <use xlink:href="#img-56b9580f-18" x="34.98" y="70.71"/>
          <use xlink:href="#img-56b9580f-18" x="38.28" y="68.87"/>
          <use xlink:href="#img-56b9580f-18" x="41.59" y="65.91"/>
          <use xlink:href="#img-56b9580f-18" x="44.89" y="64.06"/>
          <use xlink:href="#img-56b9580f-18" x="48.19" y="62.61"/>
          <use xlink:href="#img-56b9580f-18" x="51.49" y="60.19"/>
          <use xlink:href="#img-56b9580f-18" x="54.8" y="60.47"/>
          <use xlink:href="#img-56b9580f-18" x="58.1" y="59.72"/>
          <use xlink:href="#img-56b9580f-18" x="61.4" y="60.44"/>
          <use xlink:href="#img-56b9580f-18" x="64.71" y="60.84"/>
          <use xlink:href="#img-56b9580f-18" x="68.01" y="60.35"/>
          <use xlink:href="#img-56b9580f-18" x="71.31" y="59.95"/>
          <use xlink:href="#img-56b9580f-18" x="74.61" y="58.8"/>
          <use xlink:href="#img-56b9580f-18" x="77.92" y="58.23"/>
          <use xlink:href="#img-56b9580f-18" x="81.22" y="57.45"/>
          <use xlink:href="#img-56b9580f-18" x="84.52" y="58.57"/>
          <use xlink:href="#img-56b9580f-18" x="87.82" y="58.1"/>
          <use xlink:href="#img-56b9580f-18" x="91.13" y="56.74"/>
          <use xlink:href="#img-56b9580f-18" x="94.43" y="57.16"/>
          <use xlink:href="#img-56b9580f-18" x="97.73" y="56.37"/>
          <use xlink:href="#img-56b9580f-18" x="101.03" y="57.76"/>
          <use xlink:href="#img-56b9580f-18" x="104.34" y="58.6"/>
          <use xlink:href="#img-56b9580f-18" x="107.64" y="58.64"/>
          <use xlink:href="#img-56b9580f-18" x="110.94" y="58.92"/>
          <use xlink:href="#img-56b9580f-18" x="114.24" y="57.63"/>
          <use xlink:href="#img-56b9580f-18" x="117.55" y="58.62"/>
          <use xlink:href="#img-56b9580f-18" x="120.85" y="58.01"/>
        </g>
      </g>
      <g class="geometry" id="img-56b9580f-19">
        <g class="color_RGBA{Float32}(0.5019608f0,0.0f0,0.5019608f0,1.0f0)" stroke="#FFFFFF" stroke-width="0.3" fill="#800080" id="img-56b9580f-20">
          <use xlink:href="#img-56b9580f-21" x="28.38" y="71.49"/>
          <use xlink:href="#img-56b9580f-21" x="31.68" y="70.02"/>
          <use xlink:href="#img-56b9580f-21" x="34.98" y="66.12"/>
          <use xlink:href="#img-56b9580f-21" x="38.28" y="59.64"/>
          <use xlink:href="#img-56b9580f-21" x="41.59" y="53.86"/>
          <use xlink:href="#img-56b9580f-21" x="44.89" y="47.77"/>
          <use xlink:href="#img-56b9580f-21" x="48.19" y="41.28"/>
          <use xlink:href="#img-56b9580f-21" x="51.49" y="32.33"/>
          <use xlink:href="#img-56b9580f-21" x="54.8" y="31.44"/>
          <use xlink:href="#img-56b9580f-21" x="58.1" y="27.75"/>
          <use xlink:href="#img-56b9580f-21" x="61.4" y="30.34"/>
          <use xlink:href="#img-56b9580f-21" x="64.71" y="32.45"/>
          <use xlink:href="#img-56b9580f-21" x="68.01" y="30.15"/>
          <use xlink:href="#img-56b9580f-21" x="71.31" y="29.88"/>
          <use xlink:href="#img-56b9580f-21" x="74.61" y="25.92"/>
          <use xlink:href="#img-56b9580f-21" x="77.92" y="24.25"/>
          <use xlink:href="#img-56b9580f-21" x="81.22" y="21.18"/>
          <use xlink:href="#img-56b9580f-21" x="84.52" y="25.48"/>
          <use xlink:href="#img-56b9580f-21" x="87.82" y="23.32"/>
          <use xlink:href="#img-56b9580f-21" x="91.13" y="18.86"/>
          <use xlink:href="#img-56b9580f-21" x="94.43" y="20.74"/>
          <use xlink:href="#img-56b9580f-21" x="97.73" y="16.69"/>
          <use xlink:href="#img-56b9580f-21" x="101.03" y="21.14"/>
          <use xlink:href="#img-56b9580f-21" x="104.34" y="24.14"/>
          <use xlink:href="#img-56b9580f-21" x="107.64" y="24.47"/>
          <use xlink:href="#img-56b9580f-21" x="110.94" y="25.66"/>
          <use xlink:href="#img-56b9580f-21" x="114.24" y="21.6"/>
          <use xlink:href="#img-56b9580f-21" x="117.55" y="24.58"/>
          <use xlink:href="#img-56b9580f-21" x="120.85" y="22.1"/>
        </g>
      </g>
    </g>
  </g>
</g>
  <g class="guide ylabels" font-size="2.82" font-family="'PT Sans Caption','Helvetica Neue','Helvetica',sans-serif" fill="#6C606B" id="img-56b9580f-22">
    <text x="25.72" y="71.77" text-anchor="end" dy="0.35em">0</text>
    <text x="25.72" y="52.05" text-anchor="end" dy="0.35em">5.0×10⁵</text>
    <text x="25.72" y="32.33" text-anchor="end" dy="0.35em">1.0×10⁶</text>
    <text x="25.72" y="12.61" text-anchor="end" dy="0.35em">1.5×10⁶</text>
  </g>
  <g font-size="3.88" font-family="'PT Sans','Helvetica Neue','Helvetica',sans-serif" fill="#564A55" stroke="#000000" stroke-opacity="0.000" id="img-56b9580f-23">
    <text x="8.81" y="40.19" text-anchor="middle" dy="0.35em" transform="rotate(-90, 8.81, 42.19)">No of Pickups</text>
  </g>
  <g font-size="3.88" font-family="'PT Sans','Helvetica Neue','Helvetica',sans-serif" fill="#564A55" stroke="#000000" stroke-opacity="0.000" id="img-56b9580f-24">
    <text x="74.61" y="5" text-anchor="middle" dy="0.6em">Monthly comparison of Vendor 1 vs Vendor 2 for green taxi</text>
  </g>
</g>
<defs>
  <clipPath id="img-56b9580f-8">
  <path d="M26.73,10.61 L 122.5 10.61 122.5 73.77 26.73 73.77" />
</clipPath>
  <g id="img-56b9580f-18">
    <circle cx="0" cy="0" r="0.9"/>
  </g>
  <g id="img-56b9580f-21">
    <circle cx="0" cy="0" r="0.9"/>
  </g>
</defs>
</svg>
