<?xml version="1.0" encoding="UTF-8"?>
<svg xmlns="http://www.w3.org/2000/svg"
     xmlns:xlink="http://www.w3.org/1999/xlink"
     xmlns:gadfly="http://www.gadflyjl.org/ns"
     version="1.2"
     width="141.42mm" height="100mm" viewBox="0 0 141.42 100"
     stroke="none"
     fill="#000000"
     stroke-width="0.3"
     font-size="3.88"
>
<g class="plotroot yscalable" id="img-a21b4c7f-1">
  <g font-size="3.88" font-family="'PT Sans','Helvetica Neue','Helvetica',sans-serif" fill="#564A55" stroke="#000000" stroke-opacity="0.000" id="img-a21b4c7f-2">
    <text x="74.73" y="88.39" text-anchor="middle" dy="0.6em">days in weeks Jan</text>
  </g>
  <g class="guide xlabels" font-size="2.82" font-family="'PT Sans Caption','Helvetica Neue','Helvetica',sans-serif" fill="#6C606B" id="img-a21b4c7f-3">
    <text x="33.58" y="81.72" text-anchor="middle" dy="0.6em">Monday</text>
    <text x="47.3" y="81.72" text-anchor="middle" dy="0.6em">Tuesday</text>
    <text x="61.02" y="81.72" text-anchor="middle" dy="0.6em">Wednesday</text>
    <text x="74.73" y="81.72" text-anchor="middle" dy="0.6em">Thursday</text>
    <text x="88.45" y="81.72" text-anchor="middle" dy="0.6em">Friday</text>
    <text x="102.17" y="81.72" text-anchor="middle" dy="0.6em">Saturday</text>
    <text x="115.88" y="81.72" text-anchor="middle" dy="0.6em">Sunday</text>
  </g>
  <g class="guide colorkey" id="img-a21b4c7f-4">
    <g fill="#4C404B" font-size="2.82" font-family="'PT Sans','Helvetica Neue','Helvetica',sans-serif" id="img-a21b4c7f-5">
      <text x="126.55" y="43.85" dy="0.35em">vendor1</text>
      <text x="126.55" y="47.48" dy="0.35em">vendor2</text>
      <text x="126.55" y="51.1" dy="0.35em">total</text>
    </g>
    <g stroke="#000000" stroke-opacity="0.000" id="img-a21b4c7f-6">
      <rect x="123.74" y="42.94" width="1.81" height="1.81" fill="#0000FF"/>
      <rect x="123.74" y="46.57" width="1.81" height="1.81" fill="#800080"/>
      <rect x="123.74" y="50.2" width="1.81" height="1.81" fill="#008000"/>
    </g>
    <g fill="#362A35" font-size="3.88" font-family="'PT Sans','Helvetica Neue','Helvetica',sans-serif" stroke="#000000" stroke-opacity="0.000" id="img-a21b4c7f-7">
      <text x="123.74" y="40.03">Legend</text>
    </g>
  </g>
<g clip-path="url(#img-a21b4c7f-8)">
  <g id="img-a21b4c7f-9">
    <g pointer-events="visible" opacity="1" fill="#000000" fill-opacity="0.000" stroke="#000000" stroke-opacity="0.000" class="guide background" id="img-a21b4c7f-10">
      <rect x="26.72" y="10.61" width="96.02" height="70.1"/>
    </g>
    <g class="guide ygridlines xfixed" stroke-dasharray="0.5,0.5" stroke-width="0.2" stroke="#D0D0E0" id="img-a21b4c7f-11">
      <path fill="none" d="M26.72,78.72 L 122.74 78.72"/>
      <path fill="none" d="M26.72,65.49 L 122.74 65.49"/>
      <path fill="none" d="M26.72,52.27 L 122.74 52.27"/>
      <path fill="none" d="M26.72,39.05 L 122.74 39.05"/>
      <path fill="none" d="M26.72,25.83 L 122.74 25.83"/>
      <path fill="none" d="M26.72,12.61 L 122.74 12.61"/>
    </g>
    <g class="guide xgridlines yfixed" stroke-dasharray="0.5,0.5" stroke-width="0.2" stroke="#D0D0E0" id="img-a21b4c7f-12">
      <path fill="none" d="M40.44,10.61 L 40.44 80.72"/>
      <path fill="none" d="M54.16,10.61 L 54.16 80.72"/>
      <path fill="none" d="M67.87,10.61 L 67.87 80.72"/>
      <path fill="none" d="M81.59,10.61 L 81.59 80.72"/>
      <path fill="none" d="M95.31,10.61 L 95.31 80.72"/>
      <path fill="none" d="M109.02,10.61 L 109.02 80.72"/>
    </g>
    <g class="plotpanel" id="img-a21b4c7f-13">
      <g stroke-width="0.3" fill="#000000" fill-opacity="0.000" class="geometry" stroke-dasharray="none" stroke="#008000" id="img-a21b4c7f-14">
        <path fill="none" d="M33.58,43.47 L 47.3 42.39 61.02 34.19 74.73 21.38 88.45 19.83 102.17 15.79 115.88 36.86"/>
      </g>
      <g stroke-width="0.3" fill="#000000" fill-opacity="0.000" class="geometry" stroke-dasharray="none" stroke="#800080" id="img-a21b4c7f-15">
        <path fill="none" d="M33.58,60.53 L 47.3 59.64 61.02 55.56 74.73 48.66 88.45 48.21 102.17 45.72 115.88 56.91"/>
      </g>
      <g stroke-width="0.3" fill="#000000" fill-opacity="0.000" class="geometry" stroke-dasharray="none" stroke="#0000FF" id="img-a21b4c7f-16">
        <path fill="none" d="M33.58,61.66 L 47.3 61.46 61.02 57.34 74.73 51.44 88.45 50.33 102.17 48.79 115.88 58.66"/>
      </g>
      <g class="geometry" id="img-a21b4c7f-17">
        <g class="color_RGBA{Float32}(0.0f0,0.5019608f0,0.0f0,1.0f0)" stroke="#FFFFFF" stroke-width="0.3" fill="#008000" id="img-a21b4c7f-18">
          <use xlink:href="#img-a21b4c7f-19" x="33.58" y="43.47"/>
          <use xlink:href="#img-a21b4c7f-19" x="47.3" y="42.39"/>
          <use xlink:href="#img-a21b4c7f-19" x="61.02" y="34.19"/>
          <use xlink:href="#img-a21b4c7f-19" x="74.73" y="21.38"/>
          <use xlink:href="#img-a21b4c7f-19" x="88.45" y="19.83"/>
          <use xlink:href="#img-a21b4c7f-19" x="102.17" y="15.79"/>
          <use xlink:href="#img-a21b4c7f-19" x="115.88" y="36.86"/>
        </g>
      </g>
      <g class="geometry" id="img-a21b4c7f-20">
        <g class="color_RGBA{Float32}(0.5019608f0,0.0f0,0.5019608f0,1.0f0)" stroke="#FFFFFF" stroke-width="0.3" fill="#800080" id="img-a21b4c7f-21">
          <use xlink:href="#img-a21b4c7f-22" x="33.58" y="60.53"/>
          <use xlink:href="#img-a21b4c7f-22" x="47.3" y="59.64"/>
          <use xlink:href="#img-a21b4c7f-22" x="61.02" y="55.56"/>
          <use xlink:href="#img-a21b4c7f-22" x="74.73" y="48.66"/>
          <use xlink:href="#img-a21b4c7f-22" x="88.45" y="48.21"/>
          <use xlink:href="#img-a21b4c7f-22" x="102.17" y="45.72"/>
          <use xlink:href="#img-a21b4c7f-22" x="115.88" y="56.91"/>
        </g>
      </g>
      <g class="geometry" id="img-a21b4c7f-23">
        <g class="color_RGBA{Float32}(0.0f0,0.0f0,1.0f0,1.0f0)" stroke="#FFFFFF" stroke-width="0.3" fill="#0000FF" id="img-a21b4c7f-24">
          <use xlink:href="#img-a21b4c7f-25" x="33.58" y="61.66"/>
          <use xlink:href="#img-a21b4c7f-25" x="47.3" y="61.46"/>
          <use xlink:href="#img-a21b4c7f-25" x="61.02" y="57.34"/>
          <use xlink:href="#img-a21b4c7f-25" x="74.73" y="51.44"/>
          <use xlink:href="#img-a21b4c7f-25" x="88.45" y="50.33"/>
          <use xlink:href="#img-a21b4c7f-25" x="102.17" y="48.79"/>
          <use xlink:href="#img-a21b4c7f-25" x="115.88" y="58.66"/>
        </g>
      </g>
    </g>
  </g>
</g>
  <g class="guide ylabels" font-size="2.82" font-family="'PT Sans Caption','Helvetica Neue','Helvetica',sans-serif" fill="#6C606B" id="img-a21b4c7f-26">
    <text x="25.72" y="78.72" text-anchor="end" dy="0.35em">0</text>
    <text x="25.72" y="65.49" text-anchor="end" dy="0.35em">5.0×10⁵</text>
    <text x="25.72" y="52.27" text-anchor="end" dy="0.35em">1.0×10⁶</text>
    <text x="25.72" y="39.05" text-anchor="end" dy="0.35em">1.5×10⁶</text>
    <text x="25.72" y="25.83" text-anchor="end" dy="0.35em">2.0×10⁶</text>
    <text x="25.72" y="12.61" text-anchor="end" dy="0.35em">2.5×10⁶</text>
  </g>
  <g font-size="3.88" font-family="'PT Sans','Helvetica Neue','Helvetica',sans-serif" fill="#564A55" stroke="#000000" stroke-opacity="0.000" id="img-a21b4c7f-27">
    <text x="8.81" y="43.66" text-anchor="middle" dy="0.35em" transform="rotate(-90, 8.81, 45.66)">vendor frequency</text>
  </g>
  <g font-size="3.88" font-family="'PT Sans','Helvetica Neue','Helvetica',sans-serif" fill="#564A55" stroke="#000000" stroke-opacity="0.000" id="img-a21b4c7f-28">
    <text x="74.73" y="5" text-anchor="middle" dy="0.6em">frequency of vendors</text>
  </g>
</g>
<defs>
  <clipPath id="img-a21b4c7f-8">
  <path d="M26.72,10.61 L 122.74 10.61 122.74 80.72 26.72 80.72" />
</clipPath>
  <g id="img-a21b4c7f-19">
    <circle cx="0" cy="0" r="0.9"/>
  </g>
  <g id="img-a21b4c7f-22">
    <circle cx="0" cy="0" r="0.9"/>
  </g>
  <g id="img-a21b4c7f-25">
    <circle cx="0" cy="0" r="0.9"/>
  </g>
</defs>
</svg>
