<?xml version="1.0" encoding="UTF-8"?>
<svg xmlns="http://www.w3.org/2000/svg"
     xmlns:xlink="http://www.w3.org/1999/xlink"
     xmlns:gadfly="http://www.gadflyjl.org/ns"
     version="1.2"
     width="141.42mm" height="100mm" viewBox="0 0 141.42 100"
     stroke="none"
     fill="#000000"
     stroke-width="0.3"
     font-size="3.88"
>
<g class="plotroot xscalable yscalable" id="img-51d61f56-1">
  <g font-size="3.88" font-family="'PT Sans','Helvetica Neue','Helvetica',sans-serif" fill="#564A55" stroke="#000000" stroke-opacity="0.000" id="img-51d61f56-2">
    <text x="74.61" y="88.39" text-anchor="middle" dy="0.6em">Hours of day</text>
  </g>
  <g class="guide xlabels" font-size="2.82" font-family="'PT Sans Caption','Helvetica Neue','Helvetica',sans-serif" fill="#6C606B" id="img-51d61f56-3">
    <text x="28.73" y="81.72" text-anchor="middle" dy="0.6em">0</text>
    <text x="47.08" y="81.72" text-anchor="middle" dy="0.6em">5</text>
    <text x="65.44" y="81.72" text-anchor="middle" dy="0.6em">10</text>
    <text x="83.79" y="81.72" text-anchor="middle" dy="0.6em">15</text>
    <text x="102.15" y="81.72" text-anchor="middle" dy="0.6em">20</text>
    <text x="120.5" y="81.72" text-anchor="middle" dy="0.6em">25</text>
  </g>
  <g class="guide colorkey" id="img-51d61f56-4">
    <g fill="#4C404B" font-size="2.82" font-family="'PT Sans','Helvetica Neue','Helvetica',sans-serif" id="img-51d61f56-5">
      <text x="126.31" y="45.66" dy="0.35em">Vendor1</text>
      <text x="126.31" y="49.29" dy="0.35em">Vendor2</text>
    </g>
    <g stroke="#000000" stroke-opacity="0.000" id="img-51d61f56-6">
      <rect x="123.5" y="44.76" width="1.81" height="1.81" fill="#0000FF"/>
      <rect x="123.5" y="48.38" width="1.81" height="1.81" fill="#800080"/>
    </g>
    <g fill="#362A35" font-size="3.88" font-family="'PT Sans','Helvetica Neue','Helvetica',sans-serif" stroke="#000000" stroke-opacity="0.000" id="img-51d61f56-7">
      <text x="123.5" y="41.84">Legend</text>
    </g>
  </g>
<g clip-path="url(#img-51d61f56-8)">
  <g id="img-51d61f56-9">
    <g pointer-events="visible" opacity="1" fill="#000000" fill-opacity="0.000" stroke="#000000" stroke-opacity="0.000" class="guide background" id="img-51d61f56-10">
      <rect x="26.73" y="10.61" width="95.78" height="70.1"/>
    </g>
    <g class="guide ygridlines xfixed" stroke-dasharray="0.5,0.5" stroke-width="0.2" stroke="#D0D0E0" id="img-51d61f56-11">
      <path fill="none" d="M26.73,78.72 L 122.5 78.72"/>
      <path fill="none" d="M26.73,56.68 L 122.5 56.68"/>
      <path fill="none" d="M26.73,34.65 L 122.5 34.65"/>
      <path fill="none" d="M26.73,12.61 L 122.5 12.61"/>
    </g>
    <g class="guide xgridlines yfixed" stroke-dasharray="0.5,0.5" stroke-width="0.2" stroke="#D0D0E0" id="img-51d61f56-12">
      <path fill="none" d="M28.73,10.61 L 28.73 80.72"/>
      <path fill="none" d="M47.08,10.61 L 47.08 80.72"/>
      <path fill="none" d="M65.44,10.61 L 65.44 80.72"/>
      <path fill="none" d="M83.79,10.61 L 83.79 80.72"/>
      <path fill="none" d="M102.15,10.61 L 102.15 80.72"/>
      <path fill="none" d="M120.5,10.61 L 120.5 80.72"/>
    </g>
    <g class="plotpanel" id="img-51d61f56-13">
      <g stroke-width="0.3" fill="#000000" fill-opacity="0.000" class="geometry" stroke-dasharray="none" stroke="#800080" id="img-51d61f56-14">
        <path fill="none" d="M32.4,25.27 L 36.07 33.45 39.74 42.94 43.41 52.46 47.08 62.48 50.75 71.01 54.42 70.63 58.09 66.96 61.76 59.52 65.44 48.93 69.11 40.02 72.78 32.73 76.45 28.25 80.12 28.23 83.79 30 87.46 30.78 91.13 33.17 94.8 29.92 98.48 24.97 102.15 25.96 105.82 33.3 109.49 35.66 113.16 33.81 116.83 35.35"/>
      </g>
      <g stroke-width="0.3" fill="#000000" fill-opacity="0.000" class="geometry" stroke-dasharray="none" stroke="#0000FF" id="img-51d61f56-15">
        <path fill="none" d="M32.4,48.57 L 36.07 53.73 39.74 60.85 43.41 66.37 47.08 70.18 50.75 69.99 54.42 62.74 58.09 47.92 61.76 42.22 65.44 40 69.11 42.98 72.78 39.44 76.45 37.29 80.12 38.24 83.79 37.19 87.46 34.68 91.13 38.14 94.8 35.71 98.48 26.51 102.15 28.13 105.82 30.21 109.49 32.19 113.16 32.46 116.83 40.4"/>
      </g>
      <g class="geometry" id="img-51d61f56-16">
        <g class="color_RGBA{Float32}(0.0f0,0.0f0,1.0f0,1.0f0)" stroke="#FFFFFF" stroke-width="0.3" fill="#0000FF" id="img-51d61f56-17">
          <use xlink:href="#img-51d61f56-18" x="32.4" y="48.57"/>
          <use xlink:href="#img-51d61f56-18" x="36.07" y="53.73"/>
          <use xlink:href="#img-51d61f56-18" x="39.74" y="60.85"/>
          <use xlink:href="#img-51d61f56-18" x="43.41" y="66.37"/>
          <use xlink:href="#img-51d61f56-18" x="47.08" y="70.18"/>
          <use xlink:href="#img-51d61f56-18" x="50.75" y="69.99"/>
          <use xlink:href="#img-51d61f56-18" x="54.42" y="62.74"/>
          <use xlink:href="#img-51d61f56-18" x="58.09" y="47.92"/>
          <use xlink:href="#img-51d61f56-18" x="61.76" y="42.22"/>
          <use xlink:href="#img-51d61f56-18" x="65.44" y="40"/>
          <use xlink:href="#img-51d61f56-18" x="69.11" y="42.98"/>
          <use xlink:href="#img-51d61f56-18" x="72.78" y="39.44"/>
          <use xlink:href="#img-51d61f56-18" x="76.45" y="37.29"/>
          <use xlink:href="#img-51d61f56-18" x="80.12" y="38.24"/>
          <use xlink:href="#img-51d61f56-18" x="83.79" y="37.19"/>
          <use xlink:href="#img-51d61f56-18" x="87.46" y="34.68"/>
          <use xlink:href="#img-51d61f56-18" x="91.13" y="38.14"/>
          <use xlink:href="#img-51d61f56-18" x="94.8" y="35.71"/>
          <use xlink:href="#img-51d61f56-18" x="98.48" y="26.51"/>
          <use xlink:href="#img-51d61f56-18" x="102.15" y="28.13"/>
          <use xlink:href="#img-51d61f56-18" x="105.82" y="30.21"/>
          <use xlink:href="#img-51d61f56-18" x="109.49" y="32.19"/>
          <use xlink:href="#img-51d61f56-18" x="113.16" y="32.46"/>
          <use xlink:href="#img-51d61f56-18" x="116.83" y="40.4"/>
        </g>
      </g>
      <g class="geometry" id="img-51d61f56-19">
        <g class="color_RGBA{Float32}(0.5019608f0,0.0f0,0.5019608f0,1.0f0)" stroke="#FFFFFF" stroke-width="0.3" fill="#800080" id="img-51d61f56-20">
          <use xlink:href="#img-51d61f56-21" x="32.4" y="25.27"/>
          <use xlink:href="#img-51d61f56-21" x="36.07" y="33.45"/>
          <use xlink:href="#img-51d61f56-21" x="39.74" y="42.94"/>
          <use xlink:href="#img-51d61f56-21" x="43.41" y="52.46"/>
          <use xlink:href="#img-51d61f56-21" x="47.08" y="62.48"/>
          <use xlink:href="#img-51d61f56-21" x="50.75" y="71.01"/>
          <use xlink:href="#img-51d61f56-21" x="54.42" y="70.63"/>
          <use xlink:href="#img-51d61f56-21" x="58.09" y="66.96"/>
          <use xlink:href="#img-51d61f56-21" x="61.76" y="59.52"/>
          <use xlink:href="#img-51d61f56-21" x="65.44" y="48.93"/>
          <use xlink:href="#img-51d61f56-21" x="69.11" y="40.02"/>
          <use xlink:href="#img-51d61f56-21" x="72.78" y="32.73"/>
          <use xlink:href="#img-51d61f56-21" x="76.45" y="28.25"/>
          <use xlink:href="#img-51d61f56-21" x="80.12" y="28.23"/>
          <use xlink:href="#img-51d61f56-21" x="83.79" y="30"/>
          <use xlink:href="#img-51d61f56-21" x="87.46" y="30.78"/>
          <use xlink:href="#img-51d61f56-21" x="91.13" y="33.17"/>
          <use xlink:href="#img-51d61f56-21" x="94.8" y="29.92"/>
          <use xlink:href="#img-51d61f56-21" x="98.48" y="24.97"/>
          <use xlink:href="#img-51d61f56-21" x="102.15" y="25.96"/>
          <use xlink:href="#img-51d61f56-21" x="105.82" y="33.3"/>
          <use xlink:href="#img-51d61f56-21" x="109.49" y="35.66"/>
          <use xlink:href="#img-51d61f56-21" x="113.16" y="33.81"/>
          <use xlink:href="#img-51d61f56-21" x="116.83" y="35.35"/>
        </g>
      </g>
    </g>
  </g>
</g>
  <g class="guide ylabels" font-size="2.82" font-family="'PT Sans Caption','Helvetica Neue','Helvetica',sans-serif" fill="#6C606B" id="img-51d61f56-22">
    <text x="25.72" y="78.72" text-anchor="end" dy="0.35em">0</text>
    <text x="25.72" y="56.68" text-anchor="end" dy="0.35em">5.0×10⁴</text>
    <text x="25.72" y="34.65" text-anchor="end" dy="0.35em">1.0×10⁵</text>
    <text x="25.72" y="12.61" text-anchor="end" dy="0.35em">1.5×10⁵</text>
  </g>
  <g font-size="3.88" font-family="'PT Sans','Helvetica Neue','Helvetica',sans-serif" fill="#564A55" stroke="#000000" stroke-opacity="0.000" id="img-51d61f56-23">
    <text x="8.81" y="43.66" text-anchor="middle" dy="0.35em" transform="rotate(-90, 8.81, 45.66)">No of vehicles</text>
  </g>
  <g font-size="3.88" font-family="'PT Sans','Helvetica Neue','Helvetica',sans-serif" fill="#564A55" stroke="#000000" stroke-opacity="0.000" id="img-51d61f56-24">
    <text x="74.61" y="5" text-anchor="middle" dy="0.6em">Weekend comparison of Vendor 1 vs Vendor 2 (Per Hour)</text>
  </g>
</g>
<defs>
  <clipPath id="img-51d61f56-8">
  <path d="M26.73,10.61 L 122.5 10.61 122.5 80.72 26.73 80.72" />
</clipPath>
  <g id="img-51d61f56-18">
    <circle cx="0" cy="0" r="0.9"/>
  </g>
  <g id="img-51d61f56-21">
    <circle cx="0" cy="0" r="0.9"/>
  </g>
</defs>
</svg>
