<?xml version="1.0" encoding="UTF-8"?>
<svg xmlns="http://www.w3.org/2000/svg"
     xmlns:xlink="http://www.w3.org/1999/xlink"
     xmlns:gadfly="http://www.gadflyjl.org/ns"
     version="1.2"
     width="141.42mm" height="100mm" viewBox="0 0 141.42 100"
     stroke="none"
     fill="#000000"
     stroke-width="0.3"
     font-size="3.88"
>
<g class="plotroot yscalable" id="img-5b1696ae-1">
  <g font-size="3.88" font-family="'PT Sans','Helvetica Neue','Helvetica',sans-serif" fill="#564A55" stroke="#000000" stroke-opacity="0.000" id="img-5b1696ae-2">
    <text x="71.07" y="88.39" text-anchor="middle" dy="0.6em">Month</text>
  </g>
  <g class="guide xlabels" font-size="2.82" font-family="'PT Sans Caption','Helvetica Neue','Helvetica',sans-serif" fill="#6C606B" id="img-5b1696ae-3">
    <text x="19.79" y="74.77" text-anchor="end" dy="0.35em" transform="rotate(-90, 19.79, 74.77)">Aug'13</text>
    <text x="23.45" y="74.77" text-anchor="end" dy="0.35em" transform="rotate(-90, 23.45, 74.77)">sep'13</text>
    <text x="27.12" y="74.77" text-anchor="end" dy="0.35em" transform="rotate(-90, 27.12, 74.77)">Oct'13</text>
    <text x="30.78" y="74.77" text-anchor="end" dy="0.35em" transform="rotate(-90, 30.78, 74.77)">Nov'13</text>
    <text x="34.44" y="74.77" text-anchor="end" dy="0.35em" transform="rotate(-90, 34.44, 74.77)">Dec'13</text>
    <text x="38.1" y="74.77" text-anchor="end" dy="0.35em" transform="rotate(-90, 38.1, 74.77)">Jan'14</text>
    <text x="41.77" y="74.77" text-anchor="end" dy="0.35em" transform="rotate(-90, 41.77, 74.77)">Feb'14</text>
    <text x="45.43" y="74.77" text-anchor="end" dy="0.35em" transform="rotate(-90, 45.43, 74.77)">Mar'14</text>
    <text x="49.09" y="74.77" text-anchor="end" dy="0.35em" transform="rotate(-90, 49.09, 74.77)">Apr'14</text>
    <text x="52.76" y="74.77" text-anchor="end" dy="0.35em" transform="rotate(-90, 52.76, 74.77)">May'14</text>
    <text x="56.42" y="74.77" text-anchor="end" dy="0.35em" transform="rotate(-90, 56.42, 74.77)">Jun'14</text>
    <text x="60.08" y="74.77" text-anchor="end" dy="0.35em" transform="rotate(-90, 60.08, 74.77)">July'14</text>
    <text x="63.75" y="74.77" text-anchor="end" dy="0.35em" transform="rotate(-90, 63.75, 74.77)">Aug'14</text>
    <text x="67.41" y="74.77" text-anchor="end" dy="0.35em" transform="rotate(-90, 67.41, 74.77)">sep'14</text>
    <text x="71.07" y="74.77" text-anchor="end" dy="0.35em" transform="rotate(-90, 71.07, 74.77)">Oct'14</text>
    <text x="74.73" y="74.77" text-anchor="end" dy="0.35em" transform="rotate(-90, 74.73, 74.77)">Nov'14</text>
    <text x="78.4" y="74.77" text-anchor="end" dy="0.35em" transform="rotate(-90, 78.4, 74.77)">Dec'14</text>
    <text x="82.06" y="74.77" text-anchor="end" dy="0.35em" transform="rotate(-90, 82.06, 74.77)">Jan'15</text>
    <text x="85.72" y="74.77" text-anchor="end" dy="0.35em" transform="rotate(-90, 85.72, 74.77)">Feb'15</text>
    <text x="89.39" y="74.77" text-anchor="end" dy="0.35em" transform="rotate(-90, 89.39, 74.77)">Mar'15</text>
    <text x="93.05" y="74.77" text-anchor="end" dy="0.35em" transform="rotate(-90, 93.05, 74.77)">Apr'15</text>
    <text x="96.71" y="74.77" text-anchor="end" dy="0.35em" transform="rotate(-90, 96.71, 74.77)">May'15</text>
    <text x="100.37" y="74.77" text-anchor="end" dy="0.35em" transform="rotate(-90, 100.37, 74.77)">Jun'15</text>
    <text x="104.04" y="74.77" text-anchor="end" dy="0.35em" transform="rotate(-90, 104.04, 74.77)">July'15</text>
    <text x="107.7" y="74.77" text-anchor="end" dy="0.35em" transform="rotate(-90, 107.7, 74.77)">Aug'15</text>
    <text x="111.36" y="74.77" text-anchor="end" dy="0.35em" transform="rotate(-90, 111.36, 74.77)">sep'15</text>
    <text x="115.03" y="74.77" text-anchor="end" dy="0.35em" transform="rotate(-90, 115.03, 74.77)">Oct'15</text>
    <text x="118.69" y="74.77" text-anchor="end" dy="0.35em" transform="rotate(-90, 118.69, 74.77)">Nov'15</text>
    <text x="122.35" y="74.77" text-anchor="end" dy="0.35em" transform="rotate(-90, 122.35, 74.77)">Dec'15</text>
  </g>
  <g class="guide colorkey" id="img-5b1696ae-4">
    <g fill="#4C404B" font-size="2.82" font-family="'PT Sans','Helvetica Neue','Helvetica',sans-serif" id="img-5b1696ae-5">
      <text x="128" y="42.19" dy="0.35em">Cash</text>
      <text x="128" y="45.82" dy="0.35em">Card</text>
    </g>
    <g stroke="#000000" stroke-opacity="0.000" id="img-5b1696ae-6">
      <rect x="125.18" y="41.28" width="1.81" height="1.81" fill="#800080"/>
      <rect x="125.18" y="44.91" width="1.81" height="1.81" fill="#008000"/>
    </g>
    <g fill="#362A35" font-size="3.88" font-family="'PT Sans','Helvetica Neue','Helvetica',sans-serif" stroke="#000000" stroke-opacity="0.000" id="img-5b1696ae-7">
      <text x="125.18" y="38.37">Legend</text>
    </g>
  </g>
<g clip-path="url(#img-5b1696ae-8)">
  <g id="img-5b1696ae-9">
    <g pointer-events="visible" opacity="1" fill="#000000" fill-opacity="0.000" stroke="#000000" stroke-opacity="0.000" class="guide background" id="img-5b1696ae-10">
      <rect x="17.96" y="10.61" width="106.23" height="63.16"/>
    </g>
    <g class="guide ygridlines xfixed" stroke-dasharray="0.5,0.5" stroke-width="0.2" stroke="#D0D0E0" id="img-5b1696ae-11">
      <path fill="none" d="M17.96,71.77 L 124.18 71.77"/>
      <path fill="none" d="M17.96,56.98 L 124.18 56.98"/>
      <path fill="none" d="M17.96,42.19 L 124.18 42.19"/>
      <path fill="none" d="M17.96,27.4 L 124.18 27.4"/>
      <path fill="none" d="M17.96,12.61 L 124.18 12.61"/>
    </g>
    <g class="guide xgridlines yfixed" stroke-dasharray="0.5,0.5" stroke-width="0.2" stroke="#D0D0E0" id="img-5b1696ae-12">
      <path fill="none" d="M21.62,10.61 L 21.62 73.77"/>
      <path fill="none" d="M25.28,10.61 L 25.28 73.77"/>
      <path fill="none" d="M28.95,10.61 L 28.95 73.77"/>
      <path fill="none" d="M32.61,10.61 L 32.61 73.77"/>
      <path fill="none" d="M36.27,10.61 L 36.27 73.77"/>
      <path fill="none" d="M39.94,10.61 L 39.94 73.77"/>
      <path fill="none" d="M43.6,10.61 L 43.6 73.77"/>
      <path fill="none" d="M47.26,10.61 L 47.26 73.77"/>
      <path fill="none" d="M50.92,10.61 L 50.92 73.77"/>
      <path fill="none" d="M54.59,10.61 L 54.59 73.77"/>
      <path fill="none" d="M58.25,10.61 L 58.25 73.77"/>
      <path fill="none" d="M61.91,10.61 L 61.91 73.77"/>
      <path fill="none" d="M65.58,10.61 L 65.58 73.77"/>
      <path fill="none" d="M69.24,10.61 L 69.24 73.77"/>
      <path fill="none" d="M72.9,10.61 L 72.9 73.77"/>
      <path fill="none" d="M76.57,10.61 L 76.57 73.77"/>
      <path fill="none" d="M80.23,10.61 L 80.23 73.77"/>
      <path fill="none" d="M83.89,10.61 L 83.89 73.77"/>
      <path fill="none" d="M87.55,10.61 L 87.55 73.77"/>
      <path fill="none" d="M91.22,10.61 L 91.22 73.77"/>
      <path fill="none" d="M94.88,10.61 L 94.88 73.77"/>
      <path fill="none" d="M98.54,10.61 L 98.54 73.77"/>
      <path fill="none" d="M102.21,10.61 L 102.21 73.77"/>
      <path fill="none" d="M105.87,10.61 L 105.87 73.77"/>
      <path fill="none" d="M109.53,10.61 L 109.53 73.77"/>
      <path fill="none" d="M113.2,10.61 L 113.2 73.77"/>
      <path fill="none" d="M116.86,10.61 L 116.86 73.77"/>
      <path fill="none" d="M120.52,10.61 L 120.52 73.77"/>
    </g>
    <g class="plotpanel" id="img-5b1696ae-13">
      <g class="geometry" id="img-5b1696ae-14">
        <g class="color_RGBA{Float32}(0.0f0,0.5019608f0,0.0f0,1.0f0)" stroke="#FFFFFF" stroke-width="0.3" fill="#008000" id="img-5b1696ae-15">
          <use xlink:href="#img-5b1696ae-16" x="19.79" y="36.7"/>
          <use xlink:href="#img-5b1696ae-16" x="23.45" y="34.46"/>
          <use xlink:href="#img-5b1696ae-16" x="27.12" y="33.57"/>
          <use xlink:href="#img-5b1696ae-16" x="30.78" y="33.52"/>
          <use xlink:href="#img-5b1696ae-16" x="34.44" y="36.76"/>
          <use xlink:href="#img-5b1696ae-16" x="38.1" y="31.17"/>
          <use xlink:href="#img-5b1696ae-16" x="41.77" y="28.51"/>
          <use xlink:href="#img-5b1696ae-16" x="45.43" y="29.59"/>
          <use xlink:href="#img-5b1696ae-16" x="49.09" y="30.69"/>
          <use xlink:href="#img-5b1696ae-16" x="52.76" y="30.98"/>
          <use xlink:href="#img-5b1696ae-16" x="56.42" y="30.19"/>
          <use xlink:href="#img-5b1696ae-16" x="60.08" y="30.69"/>
          <use xlink:href="#img-5b1696ae-16" x="63.75" y="31.75"/>
          <use xlink:href="#img-5b1696ae-16" x="67.41" y="28.08"/>
          <use xlink:href="#img-5b1696ae-16" x="71.07" y="27.82"/>
          <use xlink:href="#img-5b1696ae-16" x="74.73" y="28.07"/>
          <use xlink:href="#img-5b1696ae-16" x="78.4" y="30.22"/>
          <use xlink:href="#img-5b1696ae-16" x="82.06" y="24.35"/>
          <use xlink:href="#img-5b1696ae-16" x="85.72" y="20.89"/>
          <use xlink:href="#img-5b1696ae-16" x="89.39" y="22.27"/>
          <use xlink:href="#img-5b1696ae-16" x="93.05" y="23.2"/>
          <use xlink:href="#img-5b1696ae-16" x="96.71" y="24.03"/>
          <use xlink:href="#img-5b1696ae-16" x="100.37" y="23.08"/>
          <use xlink:href="#img-5b1696ae-16" x="104.04" y="24.38"/>
          <use xlink:href="#img-5b1696ae-16" x="107.7" y="25.06"/>
          <use xlink:href="#img-5b1696ae-16" x="111.36" y="23.29"/>
          <use xlink:href="#img-5b1696ae-16" x="115.03" y="21.54"/>
          <use xlink:href="#img-5b1696ae-16" x="118.69" y="21.16"/>
          <use xlink:href="#img-5b1696ae-16" x="122.35" y="23.07"/>
        </g>
      </g>
      <g class="geometry" id="img-5b1696ae-17">
        <g class="color_RGBA{Float32}(0.5019608f0,0.0f0,0.5019608f0,1.0f0)" stroke="#FFFFFF" stroke-width="0.3" fill="#800080" id="img-5b1696ae-18">
          <use xlink:href="#img-5b1696ae-19" x="19.79" y="47.68"/>
          <use xlink:href="#img-5b1696ae-19" x="23.45" y="49.92"/>
          <use xlink:href="#img-5b1696ae-19" x="27.12" y="50.81"/>
          <use xlink:href="#img-5b1696ae-19" x="30.78" y="50.86"/>
          <use xlink:href="#img-5b1696ae-19" x="34.44" y="47.62"/>
          <use xlink:href="#img-5b1696ae-19" x="38.1" y="53.21"/>
          <use xlink:href="#img-5b1696ae-19" x="41.77" y="55.87"/>
          <use xlink:href="#img-5b1696ae-19" x="45.43" y="54.79"/>
          <use xlink:href="#img-5b1696ae-19" x="49.09" y="53.69"/>
          <use xlink:href="#img-5b1696ae-19" x="52.76" y="53.4"/>
          <use xlink:href="#img-5b1696ae-19" x="56.42" y="54.19"/>
          <use xlink:href="#img-5b1696ae-19" x="60.08" y="53.69"/>
          <use xlink:href="#img-5b1696ae-19" x="63.75" y="52.63"/>
          <use xlink:href="#img-5b1696ae-19" x="67.41" y="56.3"/>
          <use xlink:href="#img-5b1696ae-19" x="71.07" y="56.56"/>
          <use xlink:href="#img-5b1696ae-19" x="74.73" y="56.31"/>
          <use xlink:href="#img-5b1696ae-19" x="78.4" y="54.16"/>
          <use xlink:href="#img-5b1696ae-19" x="82.06" y="60.03"/>
          <use xlink:href="#img-5b1696ae-19" x="85.72" y="63.49"/>
          <use xlink:href="#img-5b1696ae-19" x="89.39" y="62.11"/>
          <use xlink:href="#img-5b1696ae-19" x="93.05" y="61.18"/>
          <use xlink:href="#img-5b1696ae-19" x="96.71" y="60.35"/>
          <use xlink:href="#img-5b1696ae-19" x="100.37" y="61.3"/>
          <use xlink:href="#img-5b1696ae-19" x="104.04" y="60"/>
          <use xlink:href="#img-5b1696ae-19" x="107.7" y="59.32"/>
          <use xlink:href="#img-5b1696ae-19" x="111.36" y="61.09"/>
          <use xlink:href="#img-5b1696ae-19" x="115.03" y="62.84"/>
          <use xlink:href="#img-5b1696ae-19" x="118.69" y="63.22"/>
          <use xlink:href="#img-5b1696ae-19" x="122.35" y="61.31"/>
        </g>
      </g>
      <g stroke-width="0.3" fill="#000000" fill-opacity="0.000" class="geometry" stroke-dasharray="none" stroke="#008000" id="img-5b1696ae-20">
        <path fill="none" d="M19.79,36.25 L 19.93 36.21 20.06 36.17 20.2 36.13 20.34 36.09 20.47 36.05 20.61 36.02 20.75 35.98 20.88 35.94 21.02 35.9 21.16 35.86 21.3 35.82 21.43 35.78 21.57 35.74 21.71 35.71 21.84 35.67 21.98 35.63 22.12 35.59 22.25 35.55 22.39 35.52 22.53 35.48 22.66 35.44 22.8 35.41 22.94 35.37 23.07 35.33 23.21 35.3 23.35 35.26 23.48 35.22 23.62 35.19 23.76 35.15 23.89 35.11 24.03 35.08 24.17 35.04 24.3 35.01 24.44 34.97 24.58 34.94 24.71 34.9 24.85 34.87 24.99 34.83 25.12 34.8 25.26 34.76 25.4 34.73 25.53 34.69 25.67 34.66 25.81 34.63 25.94 34.59 26.08 34.56 26.22 34.53 26.35 34.49 26.49 34.46 26.63 34.43 26.77 34.39 26.9 34.36 27.04 34.33 27.18 34.29 27.31 34.26 27.45 34.23 27.59 34.2 27.72 34.17 27.86 34.13 28 34.1 28.13 34.07 28.27 34.04 28.41 34.01 28.54 33.98 28.68 33.94 28.82 33.91 28.95 33.88 29.09 33.85 29.23 33.82 29.36 33.79 29.5 33.76 29.64 33.73 29.77 33.7 29.91 33.67 30.05 33.64 30.18 33.61 30.32 33.58 30.46 33.55 30.59 33.53 30.73 33.5 30.87 33.47 31 33.44 31.14 33.41 31.28 33.38 31.41 33.35 31.55 33.33 31.69 33.3 31.82 33.27 31.96 33.24 32.1 33.22 32.24 33.19 32.37 33.16 32.51 33.13 32.65 33.11 32.78 33.08 32.92 33.05 33.06 33.03 33.19 33 33.33 32.97 33.47 32.95 33.6 32.92 33.74 32.89 33.88 32.87 34.01 32.84 34.15 32.82 34.29 32.79 34.42 32.77 34.56 32.74 34.7 32.72 34.83 32.69 34.97 32.67 35.11 32.64 35.24 32.62 35.38 32.59 35.52 32.57 35.65 32.54 35.79 32.52 35.93 32.5 36.06 32.47 36.2 32.45 36.34 32.42 36.47 32.4 36.61 32.38 36.75 32.36 36.88 32.33 37.02 32.31 37.16 32.29 37.29 32.27 37.43 32.24 37.57 32.22 37.71 32.2 37.84 32.18 37.98 32.15 38.12 32.13 38.25 32.11 38.39 32.09 38.53 32.07 38.66 32.05 38.8 32.03 38.94 32.01 39.07 31.98 39.21 31.96 39.35 31.94 39.48 31.92 39.62 31.9 39.76 31.88 39.89 31.86 40.03 31.84 40.17 31.82 40.3 31.8 40.44 31.78 40.58 31.76 40.71 31.74 40.85 31.72 40.99 31.7 41.12 31.68 41.26 31.67 41.4 31.65 41.53 31.63 41.67 31.61 41.81 31.59 41.94 31.57 42.08 31.55 42.22 31.53 42.35 31.52 42.49 31.5 42.63 31.48 42.76 31.46 42.9 31.44 43.04 31.42 43.18 31.41 43.31 31.39 43.45 31.37 43.59 31.35 43.72 31.34 43.86 31.32 44 31.3 44.13 31.28 44.27 31.27 44.41 31.25 44.54 31.23 44.68 31.21 44.82 31.2 44.95 31.18 45.09 31.16 45.23 31.15 45.36 31.13 45.5 31.11 45.64 31.1 45.77 31.08 45.91 31.06 46.05 31.05 46.18 31.03 46.32 31.02 46.46 31 46.59 30.98 46.73 30.97 46.87 30.95 47 30.94 47.14 30.92 47.28 30.91 47.41 30.89 47.55 30.88 47.69 30.86 47.82 30.85 47.96 30.83 48.1 30.82 48.23 30.8 48.37 30.79 48.51 30.78 48.65 30.76 48.78 30.75 48.92 30.73 49.06 30.72 49.19 30.71 49.33 30.69 49.47 30.68 49.6 30.66 49.74 30.65 49.88 30.64 50.01 30.62 50.15 30.61 50.29 30.6 50.42 30.59 50.56 30.57 50.7 30.56 50.83 30.55 50.97 30.53 51.11 30.52 51.24 30.51 51.38 30.5 51.52 30.48 51.65 30.47 51.79 30.46 51.93 30.45 52.06 30.43 52.2 30.42 52.34 30.41 52.47 30.4 52.61 30.38 52.75 30.37 52.88 30.36 53.02 30.36 53.16 30.35 53.29 30.34 53.43 30.34 53.57 30.33 53.7 30.32 53.84 30.32 53.98 30.31 54.12 30.31 54.25 30.3 54.39 30.3 54.53 30.3 54.66 30.29 54.8 30.29 54.94 30.29 55.07 30.28 55.21 30.28 55.35 30.28 55.48 30.28 55.62 30.27 55.76 30.27 55.89 30.27 56.03 30.27 56.17 30.27 56.3 30.27 56.44 30.27 56.58 30.27 56.71 30.26 56.85 30.26 56.99 30.26 57.12 30.26 57.26 30.26 57.4 30.26 57.53 30.26 57.67 30.26 57.81 30.26 57.94 30.26 58.08 30.26 58.22 30.26 58.35 30.26 58.49 30.26 58.63 30.26 58.76 30.26 58.9 30.26 59.04 30.26 59.17 30.26 59.31 30.26 59.45 30.26 59.59 30.26 59.72 30.26 59.86 30.26 60 30.26 60.13 30.26 60.27 30.26 60.41 30.25 60.54 30.25 60.68 30.25 60.82 30.25 60.95 30.25 61.09 30.24 61.23 30.24 61.36 30.24 61.5 30.24 61.64 30.23 61.77 30.23 61.91 30.22 62.05 30.21 62.18 30.2 62.32 30.18 62.46 30.17 62.59 30.15 62.73 30.14 62.87 30.12 63 30.11 63.14 30.09 63.28 30.08 63.41 30.06 63.55 30.05 63.69 30.03 63.82 30.02 63.96 30 64.1 29.98 64.23 29.97 64.37 29.95 64.51 29.93 64.64 29.92 64.78 29.9 64.92 29.88 65.06 29.86 65.19 29.85 65.33 29.83 65.47 29.81 65.6 29.79 65.74 29.77 65.88 29.75 66.01 29.73 66.15 29.71 66.29 29.69 66.42 29.67 66.56 29.65 66.7 29.63 66.83 29.61 66.97 29.59 67.11 29.57 67.24 29.55 67.38 29.53 67.52 29.5 67.65 29.47 67.79 29.43 67.93 29.4 68.06 29.37 68.2 29.33 68.34 29.3 68.47 29.26 68.61 29.23 68.75 29.19 68.88 29.16 69.02 29.12 69.16 29.09 69.29 29.05 69.43 29.02 69.57 28.98 69.7 28.95 69.84 28.91 69.98 28.88 70.11 28.84 70.25 28.81 70.39 28.77 70.53 28.73 70.66 28.7 70.8 28.66 70.94 28.63 71.07 28.59 71.21 28.55 71.35 28.51 71.48 28.46 71.62 28.42 71.76 28.38 71.89 28.34 72.03 28.29 72.17 28.25 72.3 28.2 72.44 28.16 72.58 28.12 72.71 28.07 72.85 28.03 72.99 27.98 73.12 27.94 73.26 27.89 73.4 27.84 73.53 27.8 73.67 27.75 73.81 27.71 73.94 27.66 74.08 27.61 74.22 27.57 74.35 27.52 74.49 27.48 74.63 27.43 74.76 27.38 74.9 27.34 75.04 27.29 75.17 27.24 75.31 27.2 75.45 27.15 75.58 27.11 75.72 27.06 75.86 27.01 76 26.97 76.13 26.92 76.27 26.88 76.41 26.83 76.54 26.79 76.68 26.74 76.82 26.7 76.95 26.65 77.09 26.61 77.23 26.56 77.36 26.52 77.5 26.48 77.64 26.43 77.77 26.39 77.91 26.35 78.05 26.3 78.18 26.26 78.32 26.22 78.46 26.18 78.59 26.15 78.73 26.11 78.87 26.08 79 26.04 79.14 26.01 79.28 25.97 79.41 25.94 79.55 25.9 79.69 25.87 79.82 25.83 79.96 25.8 80.1 25.76 80.23 25.73 80.37 25.69 80.51 25.66 80.64 25.63 80.78 25.59 80.92 25.56 81.05 25.52 81.19 25.49 81.33 25.45 81.47 25.42 81.6 25.38 81.74 25.35 81.88 25.31 82.01 25.28 82.15 25.25 82.29 25.21 82.42 25.18 82.56 25.15 82.7 25.11 82.83 25.08 82.97 25.04 83.11 25.01 83.24 24.98 83.38 24.95 83.52 24.91 83.65 24.88 83.79 24.85 83.93 24.82 84.06 24.78 84.2 24.75 84.34 24.72 84.47 24.69 84.61 24.66 84.75 24.63 84.88 24.6 85.02 24.57 85.16 24.54 85.29 24.51 85.43 24.48 85.57 24.45 85.7 24.42 85.84 24.39 85.98 24.36 86.11 24.33 86.25 24.3 86.39 24.28 86.52 24.25 86.66 24.22 86.8 24.2 86.94 24.17 87.07 24.14 87.21 24.12 87.35 24.09 87.48 24.07 87.62 24.05 87.76 24.03 87.89 24.02 88.03 24 88.17 23.99 88.3 23.98 88.44 23.96 88.58 23.95 88.71 23.94 88.85 23.92 88.99 23.91 89.12 23.9 89.26 23.88 89.4 23.87 89.53 23.86 89.67 23.85 89.81 23.83 89.94 23.82 90.08 23.81 90.22 23.8 90.35 23.78 90.49 23.77 90.63 23.76 90.76 23.75 90.9 23.74 91.04 23.72 91.17 23.71 91.31 23.7 91.45 23.69 91.58 23.68 91.72 23.67 91.86 23.65 91.99 23.64 92.13 23.63 92.27 23.62 92.41 23.61 92.54 23.6 92.68 23.58 92.82 23.57 92.95 23.56 93.09 23.55 93.23 23.54 93.36 23.52 93.5 23.51 93.64 23.5 93.77 23.48 93.91 23.47 94.05 23.46 94.18 23.44 94.32 23.43 94.46 23.42 94.59 23.41 94.73 23.39 94.87 23.38 95 23.37 95.14 23.36 95.28 23.35 95.41 23.33 95.55 23.32 95.69 23.31 95.82 23.3 95.96 23.29 96.1 23.28 96.23 23.27 96.37 23.26 96.51 23.24 96.64 23.23 96.78 23.22 96.92 23.21 97.05 23.2 97.19 23.19 97.33 23.18 97.46 23.17 97.6 23.16 97.74 23.15 97.88 23.14 98.01 23.13 98.15 23.12 98.29 23.11 98.42 23.1 98.56 23.09 98.7 23.08 98.83 23.07 98.97 23.07 99.11 23.06 99.24 23.05 99.38 23.04 99.52 23.03 99.65 23.02 99.79 23.01 99.93 23 100.06 22.99 100.2 22.99 100.34 22.98 100.47 22.97 100.61 22.96 100.75 22.95 100.88 22.94 101.02 22.94 101.16 22.93 101.29 22.92 101.43 22.91 101.57 22.9 101.7 22.89 101.84 22.89 101.98 22.88 102.11 22.87 102.25 22.86 102.39 22.86 102.52 22.85 102.66 22.84 102.8 22.84 102.93 22.83 103.07 22.83 103.21 22.82 103.35 22.81 103.48 22.81 103.62 22.8 103.76 22.8 103.89 22.79 104.03 22.79 104.17 22.78 104.3 22.78 104.44 22.77 104.58 22.77 104.71 22.76 104.85 22.76 104.99 22.75 105.12 22.75 105.26 22.74 105.4 22.74 105.53 22.73 105.67 22.73 105.81 22.73 105.94 22.72 106.08 22.72 106.22 22.71 106.35 22.71 106.49 22.71 106.63 22.7 106.76 22.7 106.9 22.7 107.04 22.69 107.17 22.69 107.31 22.69 107.45 22.68 107.58 22.68 107.72 22.68 107.86 22.67 107.99 22.67 108.13 22.67 108.27 22.66 108.4 22.66 108.54 22.66 108.68 22.66 108.82 22.65 108.95 22.65 109.09 22.65 109.23 22.65 109.36 22.65 109.5 22.64 109.64 22.64 109.77 22.64 109.91 22.64 110.05 22.64 110.18 22.64 110.32 22.64 110.46 22.63 110.59 22.63 110.73 22.63 110.87 22.63 111 22.63 111.14 22.63 111.28 22.63 111.41 22.63 111.55 22.63 111.69 22.63 111.82 22.63 111.96 22.63 112.1 22.63 112.23 22.63 112.37 22.63 112.51 22.63 112.64 22.63 112.78 22.63 112.92 22.63 113.05 22.63 113.19 22.63 113.33 22.63 113.46 22.63 113.6 22.63 113.74 22.63 113.87 22.63 114.01 22.63 114.15 22.63 114.29 22.63 114.42 22.63 114.56 22.63 114.7 22.63 114.83 22.63 114.97 22.63 115.11 22.63 115.24 22.63 115.38 22.63 115.52 22.63 115.65 22.64 115.79 22.64 115.93 22.64 116.06 22.64 116.2 22.64 116.34 22.64 116.47 22.64 116.61 22.64 116.75 22.64 116.88 22.64 117.02 22.65 117.16 22.65 117.29 22.65 117.43 22.65 117.57 22.65 117.7 22.65 117.84 22.65 117.98 22.65 118.11 22.65 118.25 22.66 118.39 22.66 118.52 22.66 118.66 22.66 118.8 22.66 118.93 22.66 119.07 22.66 119.21 22.66 119.34 22.67 119.48 22.67 119.62 22.67 119.76 22.67 119.89 22.67 120.03 22.67 120.17 22.67 120.3 22.68 120.44 22.68 120.58 22.68 120.71 22.68 120.85 22.68 120.99 22.68 121.12 22.68 121.26 22.69 121.4 22.69 121.53 22.69 121.67 22.69 121.81 22.69 121.94 22.69 122.08 22.69 122.22 22.69"/>
      </g>
      <g stroke-width="0.3" fill="#000000" fill-opacity="0.000" class="geometry" stroke-dasharray="none" stroke="#800080" id="img-5b1696ae-21">
        <path fill="none" d="M19.79,48.13 L 19.93 48.17 20.06 48.21 20.2 48.25 20.34 48.29 20.47 48.33 20.61 48.36 20.75 48.4 20.88 48.44 21.02 48.48 21.16 48.52 21.3 48.56 21.43 48.6 21.57 48.64 21.71 48.67 21.84 48.71 21.98 48.75 22.12 48.79 22.25 48.83 22.39 48.86 22.53 48.9 22.66 48.94 22.8 48.97 22.94 49.01 23.07 49.05 23.21 49.08 23.35 49.12 23.48 49.16 23.62 49.19 23.76 49.23 23.89 49.27 24.03 49.3 24.17 49.34 24.3 49.37 24.44 49.41 24.58 49.44 24.71 49.48 24.85 49.51 24.99 49.55 25.12 49.58 25.26 49.62 25.4 49.65 25.53 49.69 25.67 49.72 25.81 49.75 25.94 49.79 26.08 49.82 26.22 49.85 26.35 49.89 26.49 49.92 26.63 49.95 26.77 49.99 26.9 50.02 27.04 50.05 27.18 50.09 27.31 50.12 27.45 50.15 27.59 50.18 27.72 50.21 27.86 50.25 28 50.28 28.13 50.31 28.27 50.34 28.41 50.37 28.54 50.4 28.68 50.44 28.82 50.47 28.95 50.5 29.09 50.53 29.23 50.56 29.36 50.59 29.5 50.62 29.64 50.65 29.77 50.68 29.91 50.71 30.05 50.74 30.18 50.77 30.32 50.8 30.46 50.83 30.59 50.85 30.73 50.88 30.87 50.91 31 50.94 31.14 50.97 31.28 51 31.41 51.03 31.55 51.05 31.69 51.08 31.82 51.11 31.96 51.14 32.1 51.16 32.24 51.19 32.37 51.22 32.51 51.25 32.65 51.27 32.78 51.3 32.92 51.33 33.06 51.35 33.19 51.38 33.33 51.41 33.47 51.43 33.6 51.46 33.74 51.49 33.88 51.51 34.01 51.54 34.15 51.56 34.29 51.59 34.42 51.61 34.56 51.64 34.7 51.66 34.83 51.69 34.97 51.71 35.11 51.74 35.24 51.76 35.38 51.79 35.52 51.81 35.65 51.84 35.79 51.86 35.93 51.88 36.06 51.91 36.2 51.93 36.34 51.96 36.47 51.98 36.61 52 36.75 52.02 36.88 52.05 37.02 52.07 37.16 52.09 37.29 52.11 37.43 52.14 37.57 52.16 37.71 52.18 37.84 52.2 37.98 52.23 38.12 52.25 38.25 52.27 38.39 52.29 38.53 52.31 38.66 52.33 38.8 52.35 38.94 52.37 39.07 52.4 39.21 52.42 39.35 52.44 39.48 52.46 39.62 52.48 39.76 52.5 39.89 52.52 40.03 52.54 40.17 52.56 40.3 52.58 40.44 52.6 40.58 52.62 40.71 52.64 40.85 52.66 40.99 52.68 41.12 52.7 41.26 52.71 41.4 52.73 41.53 52.75 41.67 52.77 41.81 52.79 41.94 52.81 42.08 52.83 42.22 52.85 42.35 52.86 42.49 52.88 42.63 52.9 42.76 52.92 42.9 52.94 43.04 52.96 43.18 52.97 43.31 52.99 43.45 53.01 43.59 53.03 43.72 53.04 43.86 53.06 44 53.08 44.13 53.1 44.27 53.11 44.41 53.13 44.54 53.15 44.68 53.17 44.82 53.18 44.95 53.2 45.09 53.22 45.23 53.23 45.36 53.25 45.5 53.27 45.64 53.28 45.77 53.3 45.91 53.32 46.05 53.33 46.18 53.35 46.32 53.36 46.46 53.38 46.59 53.4 46.73 53.41 46.87 53.43 47 53.44 47.14 53.46 47.28 53.47 47.41 53.49 47.55 53.5 47.69 53.52 47.82 53.53 47.96 53.55 48.1 53.56 48.23 53.58 48.37 53.59 48.51 53.6 48.65 53.62 48.78 53.63 48.92 53.65 49.06 53.66 49.19 53.67 49.33 53.69 49.47 53.7 49.6 53.72 49.74 53.73 49.88 53.74 50.01 53.76 50.15 53.77 50.29 53.78 50.42 53.79 50.56 53.81 50.7 53.82 50.83 53.83 50.97 53.85 51.11 53.86 51.24 53.87 51.38 53.88 51.52 53.9 51.65 53.91 51.79 53.92 51.93 53.93 52.06 53.95 52.2 53.96 52.34 53.97 52.47 53.98 52.61 54 52.75 54.01 52.88 54.02 53.02 54.02 53.16 54.03 53.29 54.04 53.43 54.04 53.57 54.05 53.7 54.06 53.84 54.06 53.98 54.07 54.12 54.07 54.25 54.08 54.39 54.08 54.53 54.08 54.66 54.09 54.8 54.09 54.94 54.09 55.07 54.1 55.21 54.1 55.35 54.1 55.48 54.1 55.62 54.11 55.76 54.11 55.89 54.11 56.03 54.11 56.17 54.11 56.3 54.11 56.44 54.11 56.58 54.11 56.71 54.12 56.85 54.12 56.99 54.12 57.12 54.12 57.26 54.12 57.4 54.12 57.53 54.12 57.67 54.12 57.81 54.12 57.94 54.12 58.08 54.12 58.22 54.12 58.35 54.12 58.49 54.12 58.63 54.12 58.76 54.12 58.9 54.12 59.04 54.12 59.17 54.12 59.31 54.12 59.45 54.12 59.59 54.12 59.72 54.12 59.86 54.12 60 54.12 60.13 54.12 60.27 54.12 60.41 54.13 60.54 54.13 60.68 54.13 60.82 54.13 60.95 54.13 61.09 54.14 61.23 54.14 61.36 54.14 61.5 54.14 61.64 54.15 61.77 54.15 61.91 54.16 62.05 54.17 62.18 54.18 62.32 54.2 62.46 54.21 62.59 54.23 62.73 54.24 62.87 54.26 63 54.27 63.14 54.29 63.28 54.3 63.41 54.32 63.55 54.33 63.69 54.35 63.82 54.36 63.96 54.38 64.1 54.4 64.23 54.41 64.37 54.43 64.51 54.45 64.64 54.46 64.78 54.48 64.92 54.5 65.06 54.52 65.19 54.53 65.33 54.55 65.47 54.57 65.6 54.59 65.74 54.61 65.88 54.63 66.01 54.65 66.15 54.67 66.29 54.69 66.42 54.71 66.56 54.73 66.7 54.75 66.83 54.77 66.97 54.79 67.11 54.81 67.24 54.83 67.38 54.85 67.52 54.88 67.65 54.91 67.79 54.95 67.93 54.98 68.06 55.01 68.2 55.05 68.34 55.08 68.47 55.12 68.61 55.15 68.75 55.19 68.88 55.22 69.02 55.26 69.16 55.29 69.29 55.33 69.43 55.36 69.57 55.4 69.7 55.43 69.84 55.47 69.98 55.5 70.11 55.54 70.25 55.57 70.39 55.61 70.53 55.65 70.66 55.68 70.8 55.72 70.94 55.75 71.07 55.79 71.21 55.83 71.35 55.87 71.48 55.92 71.62 55.96 71.76 56 71.89 56.04 72.03 56.09 72.17 56.13 72.3 56.18 72.44 56.22 72.58 56.26 72.71 56.31 72.85 56.35 72.99 56.4 73.12 56.44 73.26 56.49 73.4 56.54 73.53 56.58 73.67 56.63 73.81 56.67 73.94 56.72 74.08 56.77 74.22 56.81 74.35 56.86 74.49 56.9 74.63 56.95 74.76 57 74.9 57.04 75.04 57.09 75.17 57.14 75.31 57.18 75.45 57.23 75.58 57.27 75.72 57.32 75.86 57.37 76 57.41 76.13 57.46 76.27 57.5 76.41 57.55 76.54 57.59 76.68 57.64 76.82 57.68 76.95 57.73 77.09 57.77 77.23 57.82 77.36 57.86 77.5 57.9 77.64 57.95 77.77 57.99 77.91 58.03 78.05 58.08 78.18 58.12 78.32 58.16 78.46 58.2 78.59 58.23 78.73 58.27 78.87 58.3 79 58.34 79.14 58.37 79.28 58.41 79.41 58.44 79.55 58.48 79.69 58.51 79.82 58.55 79.96 58.58 80.1 58.62 80.23 58.65 80.37 58.69 80.51 58.72 80.64 58.75 80.78 58.79 80.92 58.82 81.05 58.86 81.19 58.89 81.33 58.93 81.47 58.96 81.6 59 81.74 59.03 81.88 59.07 82.01 59.1 82.15 59.13 82.29 59.17 82.42 59.2 82.56 59.23 82.7 59.27 82.83 59.3 82.97 59.34 83.11 59.37 83.24 59.4 83.38 59.43 83.52 59.47 83.65 59.5 83.79 59.53 83.93 59.56 84.06 59.6 84.2 59.63 84.34 59.66 84.47 59.69 84.61 59.72 84.75 59.75 84.88 59.78 85.02 59.81 85.16 59.84 85.29 59.87 85.43 59.9 85.57 59.93 85.7 59.96 85.84 59.99 85.98 60.02 86.11 60.05 86.25 60.08 86.39 60.1 86.52 60.13 86.66 60.16 86.8 60.18 86.94 60.21 87.07 60.24 87.21 60.26 87.35 60.29 87.48 60.31 87.62 60.33 87.76 60.35 87.89 60.36 88.03 60.38 88.17 60.39 88.3 60.4 88.44 60.42 88.58 60.43 88.71 60.44 88.85 60.46 88.99 60.47 89.12 60.48 89.26 60.5 89.4 60.51 89.53 60.52 89.67 60.53 89.81 60.55 89.94 60.56 90.08 60.57 90.22 60.58 90.35 60.6 90.49 60.61 90.63 60.62 90.76 60.63 90.9 60.64 91.04 60.66 91.17 60.67 91.31 60.68 91.45 60.69 91.58 60.7 91.72 60.71 91.86 60.73 91.99 60.74 92.13 60.75 92.27 60.76 92.41 60.77 92.54 60.78 92.68 60.8 92.82 60.81 92.95 60.82 93.09 60.83 93.23 60.84 93.36 60.86 93.5 60.87 93.64 60.88 93.77 60.9 93.91 60.91 94.05 60.92 94.18 60.94 94.32 60.95 94.46 60.96 94.59 60.97 94.73 60.99 94.87 61 95 61.01 95.14 61.02 95.28 61.03 95.41 61.05 95.55 61.06 95.69 61.07 95.82 61.08 95.96 61.09 96.1 61.1 96.23 61.11 96.37 61.12 96.51 61.14 96.64 61.15 96.78 61.16 96.92 61.17 97.05 61.18 97.19 61.19 97.33 61.2 97.46 61.21 97.6 61.22 97.74 61.23 97.88 61.24 98.01 61.25 98.15 61.26 98.29 61.27 98.42 61.28 98.56 61.29 98.7 61.3 98.83 61.31 98.97 61.31 99.11 61.32 99.24 61.33 99.38 61.34 99.52 61.35 99.65 61.36 99.79 61.37 99.93 61.38 100.06 61.39 100.2 61.39 100.34 61.4 100.47 61.41 100.61 61.42 100.75 61.43 100.88 61.44 101.02 61.44 101.16 61.45 101.29 61.46 101.43 61.47 101.57 61.48 101.7 61.49 101.84 61.49 101.98 61.5 102.11 61.51 102.25 61.52 102.39 61.52 102.52 61.53 102.66 61.54 102.8 61.54 102.93 61.55 103.07 61.55 103.21 61.56 103.35 61.57 103.48 61.57 103.62 61.58 103.76 61.58 103.89 61.59 104.03 61.59 104.17 61.6 104.3 61.6 104.44 61.61 104.58 61.61 104.71 61.62 104.85 61.62 104.99 61.63 105.12 61.63 105.26 61.64 105.4 61.64 105.53 61.65 105.67 61.65 105.81 61.65 105.94 61.66 106.08 61.66 106.22 61.67 106.35 61.67 106.49 61.67 106.63 61.68 106.76 61.68 106.9 61.68 107.04 61.69 107.17 61.69 107.31 61.69 107.45 61.7 107.58 61.7 107.72 61.7 107.86 61.71 107.99 61.71 108.13 61.71 108.27 61.72 108.4 61.72 108.54 61.72 108.68 61.72 108.82 61.73 108.95 61.73 109.09 61.73 109.23 61.73 109.36 61.73 109.5 61.74 109.64 61.74 109.77 61.74 109.91 61.74 110.05 61.74 110.18 61.74 110.32 61.74 110.46 61.75 110.59 61.75 110.73 61.75 110.87 61.75 111 61.75 111.14 61.75 111.28 61.75 111.41 61.75 111.55 61.75 111.69 61.75 111.82 61.75 111.96 61.75 112.1 61.75 112.23 61.75 112.37 61.75 112.51 61.75 112.64 61.75 112.78 61.75 112.92 61.75 113.05 61.75 113.19 61.75 113.33 61.75 113.46 61.75 113.6 61.75 113.74 61.75 113.87 61.75 114.01 61.75 114.15 61.75 114.29 61.75 114.42 61.75 114.56 61.75 114.7 61.75 114.83 61.75 114.97 61.75 115.11 61.75 115.24 61.75 115.38 61.75 115.52 61.75 115.65 61.74 115.79 61.74 115.93 61.74 116.06 61.74 116.2 61.74 116.34 61.74 116.47 61.74 116.61 61.74 116.75 61.74 116.88 61.74 117.02 61.73 117.16 61.73 117.29 61.73 117.43 61.73 117.57 61.73 117.7 61.73 117.84 61.73 117.98 61.73 118.11 61.73 118.25 61.72 118.39 61.72 118.52 61.72 118.66 61.72 118.8 61.72 118.93 61.72 119.07 61.72 119.21 61.72 119.34 61.71 119.48 61.71 119.62 61.71 119.76 61.71 119.89 61.71 120.03 61.71 120.17 61.71 120.3 61.7 120.44 61.7 120.58 61.7 120.71 61.7 120.85 61.7 120.99 61.7 121.12 61.7 121.26 61.69 121.4 61.69 121.53 61.69 121.67 61.69 121.81 61.69 121.94 61.69 122.08 61.69 122.22 61.69"/>
      </g>
    </g>
  </g>
</g>
  <g class="guide ylabels" font-size="2.82" font-family="'PT Sans Caption','Helvetica Neue','Helvetica',sans-serif" fill="#6C606B" id="img-5b1696ae-22">
    <text x="16.96" y="71.77" text-anchor="end" dy="0.35em">30</text>
    <text x="16.96" y="56.98" text-anchor="end" dy="0.35em">40</text>
    <text x="16.96" y="42.19" text-anchor="end" dy="0.35em">50</text>
    <text x="16.96" y="27.4" text-anchor="end" dy="0.35em">60</text>
    <text x="16.96" y="12.61" text-anchor="end" dy="0.35em">70</text>
  </g>
  <g font-size="3.88" font-family="'PT Sans','Helvetica Neue','Helvetica',sans-serif" fill="#564A55" stroke="#000000" stroke-opacity="0.000" id="img-5b1696ae-23">
    <text x="8.81" y="40.19" text-anchor="middle" dy="0.35em" transform="rotate(-90, 8.81, 42.19)">Percentage of Card/Cash used</text>
  </g>
  <g font-size="3.88" font-family="'PT Sans','Helvetica Neue','Helvetica',sans-serif" fill="#564A55" stroke="#000000" stroke-opacity="0.000" id="img-5b1696ae-24">
    <text x="71.07" y="5" text-anchor="middle" dy="0.6em">Cash vs Card Use for Yellow taxi</text>
  </g>
</g>
<defs>
  <clipPath id="img-5b1696ae-8">
  <path d="M17.96,10.61 L 124.18 10.61 124.18 73.77 17.96 73.77" />
</clipPath>
  <g id="img-5b1696ae-16">
    <circle cx="0" cy="0" r="0.9"/>
  </g>
  <g id="img-5b1696ae-19">
    <circle cx="0" cy="0" r="0.9"/>
  </g>
</defs>
</svg>
