<?xml version="1.0" encoding="UTF-8"?>
<svg xmlns="http://www.w3.org/2000/svg"
     xmlns:xlink="http://www.w3.org/1999/xlink"
     xmlns:gadfly="http://www.gadflyjl.org/ns"
     version="1.2"
     width="141.42mm" height="100mm" viewBox="0 0 141.42 100"
     stroke="none"
     fill="#000000"
     stroke-width="0.3"
     font-size="3.88"
>
<g class="plotroot xscalable yscalable" id="img-baeaf5f1-1">
  <g font-size="3.88" font-family="'PT Sans','Helvetica Neue','Helvetica',sans-serif" fill="#564A55" stroke="#000000" stroke-opacity="0.000" id="img-baeaf5f1-2">
    <text x="74.15" y="88.39" text-anchor="middle" dy="0.6em">Time in hour</text>
  </g>
  <g class="guide xlabels" font-size="2.82" font-family="'PT Sans Caption','Helvetica Neue','Helvetica',sans-serif" fill="#6C606B" id="img-baeaf5f1-3">
    <text x="28.72" y="81.72" text-anchor="middle" dy="0.6em">0</text>
    <text x="46.89" y="81.72" text-anchor="middle" dy="0.6em">5</text>
    <text x="65.06" y="81.72" text-anchor="middle" dy="0.6em">10</text>
    <text x="83.23" y="81.72" text-anchor="middle" dy="0.6em">15</text>
    <text x="101.4" y="81.72" text-anchor="middle" dy="0.6em">20</text>
    <text x="119.57" y="81.72" text-anchor="middle" dy="0.6em">25</text>
  </g>
  <g class="guide colorkey" id="img-baeaf5f1-4">
    <g fill="#4C404B" font-size="2.82" font-family="'PT Sans','Helvetica Neue','Helvetica',sans-serif" id="img-baeaf5f1-5">
      <text x="125.39" y="45.66" dy="0.35em">pick-ups</text>
      <text x="125.39" y="49.29" dy="0.35em">drop-offs</text>
    </g>
    <g stroke="#000000" stroke-opacity="0.000" id="img-baeaf5f1-6">
      <rect x="122.57" y="44.76" width="1.81" height="1.81" fill="#800080"/>
      <rect x="122.57" y="48.38" width="1.81" height="1.81" fill="#FF0000"/>
    </g>
    <g fill="#362A35" font-size="3.88" font-family="'PT Sans','Helvetica Neue','Helvetica',sans-serif" stroke="#000000" stroke-opacity="0.000" id="img-baeaf5f1-7">
      <text x="122.57" y="41.84">Legend</text>
    </g>
  </g>
<g clip-path="url(#img-baeaf5f1-8)">
  <g id="img-baeaf5f1-9">
    <g pointer-events="visible" opacity="1" fill="#000000" fill-opacity="0.000" stroke="#000000" stroke-opacity="0.000" class="guide background" id="img-baeaf5f1-10">
      <rect x="26.72" y="10.61" width="94.85" height="70.1"/>
    </g>
    <g class="guide ygridlines xfixed" stroke-dasharray="0.5,0.5" stroke-width="0.2" stroke="#D0D0E0" id="img-baeaf5f1-11">
      <path fill="none" d="M26.72,78.72 L 121.57 78.72"/>
      <path fill="none" d="M26.72,62.19 L 121.57 62.19"/>
      <path fill="none" d="M26.72,45.66 L 121.57 45.66"/>
      <path fill="none" d="M26.72,29.14 L 121.57 29.14"/>
      <path fill="none" d="M26.72,12.61 L 121.57 12.61"/>
    </g>
    <g class="guide xgridlines yfixed" stroke-dasharray="0.5,0.5" stroke-width="0.2" stroke="#D0D0E0" id="img-baeaf5f1-12">
      <path fill="none" d="M28.72,10.61 L 28.72 80.72"/>
      <path fill="none" d="M46.89,10.61 L 46.89 80.72"/>
      <path fill="none" d="M65.06,10.61 L 65.06 80.72"/>
      <path fill="none" d="M83.23,10.61 L 83.23 80.72"/>
      <path fill="none" d="M101.4,10.61 L 101.4 80.72"/>
      <path fill="none" d="M119.57,10.61 L 119.57 80.72"/>
    </g>
    <g class="plotpanel" id="img-baeaf5f1-13">
      <g stroke-width="0.3" fill="#000000" fill-opacity="0.000" class="geometry" stroke-dasharray="none" stroke="#FF0000" id="img-baeaf5f1-14">
        <path fill="none" d="M28.72,76.58 L 32.36 77.43 35.99 77.98 39.63 77.3 43.26 72.63 46.89 64.51 50.53 57.73 54.16 59.55 57.8 63.81 61.43 64.87 65.06 67.68 68.7 67.32 72.33 63.39 75.97 61.2 79.6 55.52 83.23 52.94 86.87 53.82 90.5 57.89 94.14 60.86 97.77 63.54 101.4 69.65 105.04 71.97 108.67 73.94 112.31 75.46"/>
      </g>
      <g stroke-width="0.3" fill="#000000" fill-opacity="0.000" class="geometry" stroke-dasharray="none" stroke="#800080" id="img-baeaf5f1-15">
        <path fill="none" d="M28.72,45.35 L 32.36 61.47 35.99 73.92 39.63 76.35 43.26 76.11 46.89 59.29 50.53 44.62 54.16 45.99 57.8 57.3 61.43 58.93 65.06 55.99 68.7 58.45 72.33 54.88 75.97 48.64 79.6 34.7 83.23 25.53 86.87 25.85 90.5 31.78 94.14 34.94 97.77 32.23 101.4 29.97 105.04 28.46 108.67 27.98 112.31 32.55"/>
      </g>
      <g class="geometry" id="img-baeaf5f1-16">
        <g class="color_RGBA{Float32}(1.0f0,0.0f0,0.0f0,1.0f0)" stroke="#FFFFFF" stroke-width="0.3" fill="#FF0000" id="img-baeaf5f1-17">
          <use xlink:href="#img-baeaf5f1-18" x="28.72" y="76.58"/>
          <use xlink:href="#img-baeaf5f1-18" x="32.36" y="77.43"/>
          <use xlink:href="#img-baeaf5f1-18" x="35.99" y="77.98"/>
          <use xlink:href="#img-baeaf5f1-18" x="39.63" y="77.3"/>
          <use xlink:href="#img-baeaf5f1-18" x="43.26" y="72.63"/>
          <use xlink:href="#img-baeaf5f1-18" x="46.89" y="64.51"/>
          <use xlink:href="#img-baeaf5f1-18" x="50.53" y="57.73"/>
          <use xlink:href="#img-baeaf5f1-18" x="54.16" y="59.55"/>
          <use xlink:href="#img-baeaf5f1-18" x="57.8" y="63.81"/>
          <use xlink:href="#img-baeaf5f1-18" x="61.43" y="64.87"/>
          <use xlink:href="#img-baeaf5f1-18" x="65.06" y="67.68"/>
          <use xlink:href="#img-baeaf5f1-18" x="68.7" y="67.32"/>
          <use xlink:href="#img-baeaf5f1-18" x="72.33" y="63.39"/>
          <use xlink:href="#img-baeaf5f1-18" x="75.97" y="61.2"/>
          <use xlink:href="#img-baeaf5f1-18" x="79.6" y="55.52"/>
          <use xlink:href="#img-baeaf5f1-18" x="83.23" y="52.94"/>
          <use xlink:href="#img-baeaf5f1-18" x="86.87" y="53.82"/>
          <use xlink:href="#img-baeaf5f1-18" x="90.5" y="57.89"/>
          <use xlink:href="#img-baeaf5f1-18" x="94.14" y="60.86"/>
          <use xlink:href="#img-baeaf5f1-18" x="97.77" y="63.54"/>
          <use xlink:href="#img-baeaf5f1-18" x="101.4" y="69.65"/>
          <use xlink:href="#img-baeaf5f1-18" x="105.04" y="71.97"/>
          <use xlink:href="#img-baeaf5f1-18" x="108.67" y="73.94"/>
          <use xlink:href="#img-baeaf5f1-18" x="112.31" y="75.46"/>
        </g>
      </g>
      <g class="geometry" id="img-baeaf5f1-19">
        <g class="color_RGBA{Float32}(0.5019608f0,0.0f0,0.5019608f0,1.0f0)" stroke="#FFFFFF" stroke-width="0.3" fill="#800080" id="img-baeaf5f1-20">
          <use xlink:href="#img-baeaf5f1-21" x="28.72" y="45.35"/>
          <use xlink:href="#img-baeaf5f1-21" x="32.36" y="61.47"/>
          <use xlink:href="#img-baeaf5f1-21" x="35.99" y="73.92"/>
          <use xlink:href="#img-baeaf5f1-21" x="39.63" y="76.35"/>
          <use xlink:href="#img-baeaf5f1-21" x="43.26" y="76.11"/>
          <use xlink:href="#img-baeaf5f1-21" x="46.89" y="59.29"/>
          <use xlink:href="#img-baeaf5f1-21" x="50.53" y="44.62"/>
          <use xlink:href="#img-baeaf5f1-21" x="54.16" y="45.99"/>
          <use xlink:href="#img-baeaf5f1-21" x="57.8" y="57.3"/>
          <use xlink:href="#img-baeaf5f1-21" x="61.43" y="58.93"/>
          <use xlink:href="#img-baeaf5f1-21" x="65.06" y="55.99"/>
          <use xlink:href="#img-baeaf5f1-21" x="68.7" y="58.45"/>
          <use xlink:href="#img-baeaf5f1-21" x="72.33" y="54.88"/>
          <use xlink:href="#img-baeaf5f1-21" x="75.97" y="48.64"/>
          <use xlink:href="#img-baeaf5f1-21" x="79.6" y="34.7"/>
          <use xlink:href="#img-baeaf5f1-21" x="83.23" y="25.53"/>
          <use xlink:href="#img-baeaf5f1-21" x="86.87" y="25.85"/>
          <use xlink:href="#img-baeaf5f1-21" x="90.5" y="31.78"/>
          <use xlink:href="#img-baeaf5f1-21" x="94.14" y="34.94"/>
          <use xlink:href="#img-baeaf5f1-21" x="97.77" y="32.23"/>
          <use xlink:href="#img-baeaf5f1-21" x="101.4" y="29.97"/>
          <use xlink:href="#img-baeaf5f1-21" x="105.04" y="28.46"/>
          <use xlink:href="#img-baeaf5f1-21" x="108.67" y="27.98"/>
          <use xlink:href="#img-baeaf5f1-21" x="112.31" y="32.55"/>
        </g>
      </g>
    </g>
  </g>
</g>
  <g class="guide ylabels" font-size="2.82" font-family="'PT Sans Caption','Helvetica Neue','Helvetica',sans-serif" fill="#6C606B" id="img-baeaf5f1-22">
    <text x="25.72" y="78.72" text-anchor="end" dy="0.35em">0</text>
    <text x="25.72" y="62.19" text-anchor="end" dy="0.35em">5.0×10³</text>
    <text x="25.72" y="45.66" text-anchor="end" dy="0.35em">1.0×10⁴</text>
    <text x="25.72" y="29.14" text-anchor="end" dy="0.35em">1.5×10⁴</text>
    <text x="25.72" y="12.61" text-anchor="end" dy="0.35em">2.0×10⁴</text>
  </g>
  <g font-size="3.88" font-family="'PT Sans','Helvetica Neue','Helvetica',sans-serif" fill="#564A55" stroke="#000000" stroke-opacity="0.000" id="img-baeaf5f1-23">
    <text x="8.81" y="43.66" text-anchor="middle" dy="0.35em" transform="rotate(-90, 8.81, 45.66)">No of vehicles</text>
  </g>
  <g font-size="3.88" font-family="'PT Sans','Helvetica Neue','Helvetica',sans-serif" fill="#564A55" stroke="#000000" stroke-opacity="0.000" id="img-baeaf5f1-24">
    <text x="74.15" y="5" text-anchor="middle" dy="0.6em">Airport Pickup(Per Hour)</text>
  </g>
</g>
<defs>
  <clipPath id="img-baeaf5f1-8">
  <path d="M26.72,10.61 L 121.57 10.61 121.57 80.72 26.72 80.72" />
</clipPath>
  <g id="img-baeaf5f1-18">
    <circle cx="0" cy="0" r="0.9"/>
  </g>
  <g id="img-baeaf5f1-21">
    <circle cx="0" cy="0" r="0.9"/>
  </g>
</defs>
</svg>
