<?xml version="1.0" encoding="UTF-8"?>
<svg xmlns="http://www.w3.org/2000/svg"
     xmlns:xlink="http://www.w3.org/1999/xlink"
     xmlns:gadfly="http://www.gadflyjl.org/ns"
     version="1.2"
     width="141.42mm" height="100mm" viewBox="0 0 141.42 100"
     stroke="none"
     fill="#000000"
     stroke-width="0.3"
     font-size="3.88"
>
<g class="plotroot yscalable" id="img-010adba5-1">
  <g font-size="3.88" font-family="'PT Sans','Helvetica Neue','Helvetica',sans-serif" fill="#564A55" stroke="#000000" stroke-opacity="0.000" id="img-010adba5-2">
    <text x="74.61" y="88.39" text-anchor="middle" dy="0.6em">Month</text>
  </g>
  <g class="guide xlabels" font-size="2.82" font-family="'PT Sans Caption','Helvetica Neue','Helvetica',sans-serif" fill="#6C606B" id="img-010adba5-3">
    <text x="28.38" y="74.77" text-anchor="end" dy="0.35em" transform="rotate(-90, 28.38, 74.77)">Aug'13</text>
    <text x="31.68" y="74.77" text-anchor="end" dy="0.35em" transform="rotate(-90, 31.68, 74.77)">sep'13</text>
    <text x="34.98" y="74.77" text-anchor="end" dy="0.35em" transform="rotate(-90, 34.98, 74.77)">Oct'13</text>
    <text x="38.28" y="74.77" text-anchor="end" dy="0.35em" transform="rotate(-90, 38.28, 74.77)">Nov'13</text>
    <text x="41.59" y="74.77" text-anchor="end" dy="0.35em" transform="rotate(-90, 41.59, 74.77)">Dec'13</text>
    <text x="44.89" y="74.77" text-anchor="end" dy="0.35em" transform="rotate(-90, 44.89, 74.77)">Jan'14</text>
    <text x="48.19" y="74.77" text-anchor="end" dy="0.35em" transform="rotate(-90, 48.19, 74.77)">Feb'14</text>
    <text x="51.49" y="74.77" text-anchor="end" dy="0.35em" transform="rotate(-90, 51.49, 74.77)">Mar'14</text>
    <text x="54.8" y="74.77" text-anchor="end" dy="0.35em" transform="rotate(-90, 54.8, 74.77)">Apr'14</text>
    <text x="58.1" y="74.77" text-anchor="end" dy="0.35em" transform="rotate(-90, 58.1, 74.77)">May'14</text>
    <text x="61.4" y="74.77" text-anchor="end" dy="0.35em" transform="rotate(-90, 61.4, 74.77)">Jun'14</text>
    <text x="64.71" y="74.77" text-anchor="end" dy="0.35em" transform="rotate(-90, 64.71, 74.77)">July'14</text>
    <text x="68.01" y="74.77" text-anchor="end" dy="0.35em" transform="rotate(-90, 68.01, 74.77)">Aug'14</text>
    <text x="71.31" y="74.77" text-anchor="end" dy="0.35em" transform="rotate(-90, 71.31, 74.77)">sep'14</text>
    <text x="74.61" y="74.77" text-anchor="end" dy="0.35em" transform="rotate(-90, 74.61, 74.77)">Oct'14</text>
    <text x="77.92" y="74.77" text-anchor="end" dy="0.35em" transform="rotate(-90, 77.92, 74.77)">Nov'14</text>
    <text x="81.22" y="74.77" text-anchor="end" dy="0.35em" transform="rotate(-90, 81.22, 74.77)">Dec'14</text>
    <text x="84.52" y="74.77" text-anchor="end" dy="0.35em" transform="rotate(-90, 84.52, 74.77)">Jan'15</text>
    <text x="87.82" y="74.77" text-anchor="end" dy="0.35em" transform="rotate(-90, 87.82, 74.77)">Feb'15</text>
    <text x="91.13" y="74.77" text-anchor="end" dy="0.35em" transform="rotate(-90, 91.13, 74.77)">Mar'15</text>
    <text x="94.43" y="74.77" text-anchor="end" dy="0.35em" transform="rotate(-90, 94.43, 74.77)">Apr'15</text>
    <text x="97.73" y="74.77" text-anchor="end" dy="0.35em" transform="rotate(-90, 97.73, 74.77)">May'15</text>
    <text x="101.03" y="74.77" text-anchor="end" dy="0.35em" transform="rotate(-90, 101.03, 74.77)">Jun'15</text>
    <text x="104.34" y="74.77" text-anchor="end" dy="0.35em" transform="rotate(-90, 104.34, 74.77)">July'15</text>
    <text x="107.64" y="74.77" text-anchor="end" dy="0.35em" transform="rotate(-90, 107.64, 74.77)">Aug'15</text>
    <text x="110.94" y="74.77" text-anchor="end" dy="0.35em" transform="rotate(-90, 110.94, 74.77)">sep'15</text>
    <text x="114.24" y="74.77" text-anchor="end" dy="0.35em" transform="rotate(-90, 114.24, 74.77)">Oct'15</text>
    <text x="117.55" y="74.77" text-anchor="end" dy="0.35em" transform="rotate(-90, 117.55, 74.77)">Nov'15</text>
    <text x="120.85" y="74.77" text-anchor="end" dy="0.35em" transform="rotate(-90, 120.85, 74.77)">Dec'15</text>
  </g>
  <g class="guide colorkey" id="img-010adba5-4">
    <g fill="#4C404B" font-size="2.82" font-family="'PT Sans','Helvetica Neue','Helvetica',sans-serif" id="img-010adba5-5">
      <text x="126.31" y="42.19" dy="0.35em">Vendor1</text>
      <text x="126.31" y="45.82" dy="0.35em">Vendor2</text>
    </g>
    <g stroke="#000000" stroke-opacity="0.000" id="img-010adba5-6">
      <rect x="123.5" y="41.28" width="1.81" height="1.81" fill="#0000FF"/>
      <rect x="123.5" y="44.91" width="1.81" height="1.81" fill="#800080"/>
    </g>
    <g fill="#362A35" font-size="3.88" font-family="'PT Sans','Helvetica Neue','Helvetica',sans-serif" stroke="#000000" stroke-opacity="0.000" id="img-010adba5-7">
      <text x="123.5" y="38.37">Legend</text>
    </g>
  </g>
<g clip-path="url(#img-010adba5-8)">
  <g id="img-010adba5-9">
    <g pointer-events="visible" opacity="1" fill="#000000" fill-opacity="0.000" stroke="#000000" stroke-opacity="0.000" class="guide background" id="img-010adba5-10">
      <rect x="26.73" y="10.61" width="95.78" height="63.16"/>
    </g>
    <g class="guide ygridlines xfixed" stroke-dasharray="0.5,0.5" stroke-width="0.2" stroke="#D0D0E0" id="img-010adba5-11">
      <path fill="none" d="M26.73,71.77 L 122.5 71.77"/>
      <path fill="none" d="M26.73,52.05 L 122.5 52.05"/>
      <path fill="none" d="M26.73,32.33 L 122.5 32.33"/>
      <path fill="none" d="M26.73,12.61 L 122.5 12.61"/>
    </g>
    <g class="guide xgridlines yfixed" stroke-dasharray="0.5,0.5" stroke-width="0.2" stroke="#D0D0E0" id="img-010adba5-12">
      <path fill="none" d="M30.03,10.61 L 30.03 73.77"/>
      <path fill="none" d="M33.33,10.61 L 33.33 73.77"/>
      <path fill="none" d="M36.63,10.61 L 36.63 73.77"/>
      <path fill="none" d="M39.94,10.61 L 39.94 73.77"/>
      <path fill="none" d="M43.24,10.61 L 43.24 73.77"/>
      <path fill="none" d="M46.54,10.61 L 46.54 73.77"/>
      <path fill="none" d="M49.84,10.61 L 49.84 73.77"/>
      <path fill="none" d="M53.15,10.61 L 53.15 73.77"/>
      <path fill="none" d="M56.45,10.61 L 56.45 73.77"/>
      <path fill="none" d="M59.75,10.61 L 59.75 73.77"/>
      <path fill="none" d="M63.05,10.61 L 63.05 73.77"/>
      <path fill="none" d="M66.36,10.61 L 66.36 73.77"/>
      <path fill="none" d="M69.66,10.61 L 69.66 73.77"/>
      <path fill="none" d="M72.96,10.61 L 72.96 73.77"/>
      <path fill="none" d="M76.26,10.61 L 76.26 73.77"/>
      <path fill="none" d="M79.57,10.61 L 79.57 73.77"/>
      <path fill="none" d="M82.87,10.61 L 82.87 73.77"/>
      <path fill="none" d="M86.17,10.61 L 86.17 73.77"/>
      <path fill="none" d="M89.48,10.61 L 89.48 73.77"/>
      <path fill="none" d="M92.78,10.61 L 92.78 73.77"/>
      <path fill="none" d="M96.08,10.61 L 96.08 73.77"/>
      <path fill="none" d="M99.38,10.61 L 99.38 73.77"/>
      <path fill="none" d="M102.69,10.61 L 102.69 73.77"/>
      <path fill="none" d="M105.99,10.61 L 105.99 73.77"/>
      <path fill="none" d="M109.29,10.61 L 109.29 73.77"/>
      <path fill="none" d="M112.59,10.61 L 112.59 73.77"/>
      <path fill="none" d="M115.9,10.61 L 115.9 73.77"/>
      <path fill="none" d="M119.2,10.61 L 119.2 73.77"/>
    </g>
    <g class="plotpanel" id="img-010adba5-13">
      <g stroke-width="0.3" fill="#000000" fill-opacity="0.000" class="geometry" stroke-dasharray="none" stroke="#800080" id="img-010adba5-14">
        <path fill="none" d="M28.38,50.74 L 31.68 29.2 34.98 21.91 38.28 27.37 41.59 31.2 44.89 32.25 48.19 38.94 51.49 16.41 54.8 24.47 58.1 22.78 61.4 31.75 64.71 37.66 68.01 40.59 71.31 34.49 74.61 26.77 77.92 36.88 81.22 38.63 84.52 39.28 87.82 42.1 91.13 33.34 94.43 36.34 97.73 35.27 101.03 43.12 104.34 50.07 107.64 53.71 110.94 52.77 114.24 42.47 117.55 53.12 120.85 51.13"/>
      </g>
      <g stroke-width="0.3" fill="#000000" fill-opacity="0.000" class="geometry" stroke-dasharray="none" stroke="#0000FF" id="img-010adba5-15">
        <path fill="none" d="M28.38,41.59 L 31.68 33.34 34.98 22.94 38.28 29.63 41.59 34.03 44.89 36.7 48.19 44.18 51.49 20.09 54.8 27.99 58.1 26.62 61.4 36.6 64.71 44.62 68.01 49.93 71.31 42.52 74.61 33.31 77.92 43.2 81.22 45.47 84.52 50.05 87.82 53.12 91.13 44.1 94.43 46.62 97.73 45.99 101.03 54.57 104.34 62.65 107.64 67.54 110.94 66.61 114.24 55.4 117.55 64.53 120.85 63.61"/>
      </g>
      <g class="geometry" id="img-010adba5-16">
        <g class="color_RGBA{Float32}(0.0f0,0.0f0,1.0f0,1.0f0)" stroke="#FFFFFF" stroke-width="0.3" fill="#0000FF" id="img-010adba5-17">
          <use xlink:href="#img-010adba5-18" x="28.38" y="41.59"/>
          <use xlink:href="#img-010adba5-18" x="31.68" y="33.34"/>
          <use xlink:href="#img-010adba5-18" x="34.98" y="22.94"/>
          <use xlink:href="#img-010adba5-18" x="38.28" y="29.63"/>
          <use xlink:href="#img-010adba5-18" x="41.59" y="34.03"/>
          <use xlink:href="#img-010adba5-18" x="44.89" y="36.7"/>
          <use xlink:href="#img-010adba5-18" x="48.19" y="44.18"/>
          <use xlink:href="#img-010adba5-18" x="51.49" y="20.09"/>
          <use xlink:href="#img-010adba5-18" x="54.8" y="27.99"/>
          <use xlink:href="#img-010adba5-18" x="58.1" y="26.62"/>
          <use xlink:href="#img-010adba5-18" x="61.4" y="36.6"/>
          <use xlink:href="#img-010adba5-18" x="64.71" y="44.62"/>
          <use xlink:href="#img-010adba5-18" x="68.01" y="49.93"/>
          <use xlink:href="#img-010adba5-18" x="71.31" y="42.52"/>
          <use xlink:href="#img-010adba5-18" x="74.61" y="33.31"/>
          <use xlink:href="#img-010adba5-18" x="77.92" y="43.2"/>
          <use xlink:href="#img-010adba5-18" x="81.22" y="45.47"/>
          <use xlink:href="#img-010adba5-18" x="84.52" y="50.05"/>
          <use xlink:href="#img-010adba5-18" x="87.82" y="53.12"/>
          <use xlink:href="#img-010adba5-18" x="91.13" y="44.1"/>
          <use xlink:href="#img-010adba5-18" x="94.43" y="46.62"/>
          <use xlink:href="#img-010adba5-18" x="97.73" y="45.99"/>
          <use xlink:href="#img-010adba5-18" x="101.03" y="54.57"/>
          <use xlink:href="#img-010adba5-18" x="104.34" y="62.65"/>
          <use xlink:href="#img-010adba5-18" x="107.64" y="67.54"/>
          <use xlink:href="#img-010adba5-18" x="110.94" y="66.61"/>
          <use xlink:href="#img-010adba5-18" x="114.24" y="55.4"/>
          <use xlink:href="#img-010adba5-18" x="117.55" y="64.53"/>
          <use xlink:href="#img-010adba5-18" x="120.85" y="63.61"/>
        </g>
      </g>
      <g class="geometry" id="img-010adba5-19">
        <g class="color_RGBA{Float32}(0.5019608f0,0.0f0,0.5019608f0,1.0f0)" stroke="#FFFFFF" stroke-width="0.3" fill="#800080" id="img-010adba5-20">
          <use xlink:href="#img-010adba5-21" x="28.38" y="50.74"/>
          <use xlink:href="#img-010adba5-21" x="31.68" y="29.2"/>
          <use xlink:href="#img-010adba5-21" x="34.98" y="21.91"/>
          <use xlink:href="#img-010adba5-21" x="38.28" y="27.37"/>
          <use xlink:href="#img-010adba5-21" x="41.59" y="31.2"/>
          <use xlink:href="#img-010adba5-21" x="44.89" y="32.25"/>
          <use xlink:href="#img-010adba5-21" x="48.19" y="38.94"/>
          <use xlink:href="#img-010adba5-21" x="51.49" y="16.41"/>
          <use xlink:href="#img-010adba5-21" x="54.8" y="24.47"/>
          <use xlink:href="#img-010adba5-21" x="58.1" y="22.78"/>
          <use xlink:href="#img-010adba5-21" x="61.4" y="31.75"/>
          <use xlink:href="#img-010adba5-21" x="64.71" y="37.66"/>
          <use xlink:href="#img-010adba5-21" x="68.01" y="40.59"/>
          <use xlink:href="#img-010adba5-21" x="71.31" y="34.49"/>
          <use xlink:href="#img-010adba5-21" x="74.61" y="26.77"/>
          <use xlink:href="#img-010adba5-21" x="77.92" y="36.88"/>
          <use xlink:href="#img-010adba5-21" x="81.22" y="38.63"/>
          <use xlink:href="#img-010adba5-21" x="84.52" y="39.28"/>
          <use xlink:href="#img-010adba5-21" x="87.82" y="42.1"/>
          <use xlink:href="#img-010adba5-21" x="91.13" y="33.34"/>
          <use xlink:href="#img-010adba5-21" x="94.43" y="36.34"/>
          <use xlink:href="#img-010adba5-21" x="97.73" y="35.27"/>
          <use xlink:href="#img-010adba5-21" x="101.03" y="43.12"/>
          <use xlink:href="#img-010adba5-21" x="104.34" y="50.07"/>
          <use xlink:href="#img-010adba5-21" x="107.64" y="53.71"/>
          <use xlink:href="#img-010adba5-21" x="110.94" y="52.77"/>
          <use xlink:href="#img-010adba5-21" x="114.24" y="42.47"/>
          <use xlink:href="#img-010adba5-21" x="117.55" y="53.12"/>
          <use xlink:href="#img-010adba5-21" x="120.85" y="51.13"/>
        </g>
      </g>
    </g>
  </g>
</g>
  <g class="guide ylabels" font-size="2.82" font-family="'PT Sans Caption','Helvetica Neue','Helvetica',sans-serif" fill="#6C606B" id="img-010adba5-22">
    <text x="25.72" y="71.77" text-anchor="end" dy="0.35em">5.0×10⁶</text>
    <text x="25.72" y="52.05" text-anchor="end" dy="0.35em">6.0×10⁶</text>
    <text x="25.72" y="32.33" text-anchor="end" dy="0.35em">7.0×10⁶</text>
    <text x="25.72" y="12.61" text-anchor="end" dy="0.35em">8.0×10⁶</text>
  </g>
  <g font-size="3.88" font-family="'PT Sans','Helvetica Neue','Helvetica',sans-serif" fill="#564A55" stroke="#000000" stroke-opacity="0.000" id="img-010adba5-23">
    <text x="8.81" y="40.19" text-anchor="middle" dy="0.35em" transform="rotate(-90, 8.81, 42.19)">No of Pickups</text>
  </g>
  <g font-size="3.88" font-family="'PT Sans','Helvetica Neue','Helvetica',sans-serif" fill="#564A55" stroke="#000000" stroke-opacity="0.000" id="img-010adba5-24">
    <text x="74.61" y="5" text-anchor="middle" dy="0.6em">Monthly comparison of Vendor 1 vs Vendor 2 for yellow taxi</text>
  </g>
</g>
<defs>
  <clipPath id="img-010adba5-8">
  <path d="M26.73,10.61 L 122.5 10.61 122.5 73.77 26.73 73.77" />
</clipPath>
  <g id="img-010adba5-18">
    <circle cx="0" cy="0" r="0.9"/>
  </g>
  <g id="img-010adba5-21">
    <circle cx="0" cy="0" r="0.9"/>
  </g>
</defs>
</svg>
