<?xml version="1.0" encoding="UTF-8"?>
<svg xmlns="http://www.w3.org/2000/svg"
     xmlns:xlink="http://www.w3.org/1999/xlink"
     xmlns:gadfly="http://www.gadflyjl.org/ns"
     version="1.2"
     width="141.42mm" height="100mm" viewBox="0 0 141.42 100"
     stroke="none"
     fill="#000000"
     stroke-width="0.3"
     font-size="3.88"
>
<g class="plotroot yscalable" id="img-ad7ca9ca-1">
  <g font-size="3.88" font-family="'PT Sans','Helvetica Neue','Helvetica',sans-serif" fill="#564A55" stroke="#000000" stroke-opacity="0.000" id="img-ad7ca9ca-2">
    <text x="71.97" y="88.39" text-anchor="middle" dy="0.6em">Month</text>
  </g>
  <g class="guide xlabels" font-size="2.82" font-family="'PT Sans Caption','Helvetica Neue','Helvetica',sans-serif" fill="#6C606B" id="img-ad7ca9ca-3">
    <text x="26.02" y="74.77" text-anchor="end" dy="0.35em" transform="rotate(-90, 26.02, 74.77)">Aug'13</text>
    <text x="29.3" y="74.77" text-anchor="end" dy="0.35em" transform="rotate(-90, 29.3, 74.77)">sep'13</text>
    <text x="32.58" y="74.77" text-anchor="end" dy="0.35em" transform="rotate(-90, 32.58, 74.77)">Oct'13</text>
    <text x="35.87" y="74.77" text-anchor="end" dy="0.35em" transform="rotate(-90, 35.87, 74.77)">Nov'13</text>
    <text x="39.15" y="74.77" text-anchor="end" dy="0.35em" transform="rotate(-90, 39.15, 74.77)">Dec'13</text>
    <text x="42.43" y="74.77" text-anchor="end" dy="0.35em" transform="rotate(-90, 42.43, 74.77)">Jan'14</text>
    <text x="45.71" y="74.77" text-anchor="end" dy="0.35em" transform="rotate(-90, 45.71, 74.77)">Feb'14</text>
    <text x="48.99" y="74.77" text-anchor="end" dy="0.35em" transform="rotate(-90, 48.99, 74.77)">Mar'14</text>
    <text x="52.27" y="74.77" text-anchor="end" dy="0.35em" transform="rotate(-90, 52.27, 74.77)">Apr'14</text>
    <text x="55.56" y="74.77" text-anchor="end" dy="0.35em" transform="rotate(-90, 55.56, 74.77)">May'14</text>
    <text x="58.84" y="74.77" text-anchor="end" dy="0.35em" transform="rotate(-90, 58.84, 74.77)">Jun'14</text>
    <text x="62.12" y="74.77" text-anchor="end" dy="0.35em" transform="rotate(-90, 62.12, 74.77)">July'14</text>
    <text x="65.4" y="74.77" text-anchor="end" dy="0.35em" transform="rotate(-90, 65.4, 74.77)">Aug'14</text>
    <text x="68.68" y="74.77" text-anchor="end" dy="0.35em" transform="rotate(-90, 68.68, 74.77)">sep'14</text>
    <text x="71.97" y="74.77" text-anchor="end" dy="0.35em" transform="rotate(-90, 71.97, 74.77)">Oct'14</text>
    <text x="75.25" y="74.77" text-anchor="end" dy="0.35em" transform="rotate(-90, 75.25, 74.77)">Nov'14</text>
    <text x="78.53" y="74.77" text-anchor="end" dy="0.35em" transform="rotate(-90, 78.53, 74.77)">Dec'14</text>
    <text x="81.81" y="74.77" text-anchor="end" dy="0.35em" transform="rotate(-90, 81.81, 74.77)">Jan'15</text>
    <text x="85.09" y="74.77" text-anchor="end" dy="0.35em" transform="rotate(-90, 85.09, 74.77)">Feb'15</text>
    <text x="88.38" y="74.77" text-anchor="end" dy="0.35em" transform="rotate(-90, 88.38, 74.77)">Mar'15</text>
    <text x="91.66" y="74.77" text-anchor="end" dy="0.35em" transform="rotate(-90, 91.66, 74.77)">Apr'15</text>
    <text x="94.94" y="74.77" text-anchor="end" dy="0.35em" transform="rotate(-90, 94.94, 74.77)">May'15</text>
    <text x="98.22" y="74.77" text-anchor="end" dy="0.35em" transform="rotate(-90, 98.22, 74.77)">Jun'15</text>
    <text x="101.5" y="74.77" text-anchor="end" dy="0.35em" transform="rotate(-90, 101.5, 74.77)">July'15</text>
    <text x="104.79" y="74.77" text-anchor="end" dy="0.35em" transform="rotate(-90, 104.79, 74.77)">Aug'15</text>
    <text x="108.07" y="74.77" text-anchor="end" dy="0.35em" transform="rotate(-90, 108.07, 74.77)">sep'15</text>
    <text x="111.35" y="74.77" text-anchor="end" dy="0.35em" transform="rotate(-90, 111.35, 74.77)">Oct'15</text>
    <text x="114.63" y="74.77" text-anchor="end" dy="0.35em" transform="rotate(-90, 114.63, 74.77)">Nov'15</text>
    <text x="117.91" y="74.77" text-anchor="end" dy="0.35em" transform="rotate(-90, 117.91, 74.77)">Dec'15</text>
  </g>
  <g class="guide colorkey" id="img-ad7ca9ca-4">
    <g fill="#4C404B" font-size="2.82" font-family="'PT Sans','Helvetica Neue','Helvetica',sans-serif" id="img-ad7ca9ca-5">
      <text x="123.37" y="40.38" dy="0.35em">Pickup</text>
      <text x="123.37" y="44" dy="0.35em">Dropoff</text>
      <text x="123.37" y="47.63" dy="0.35em">Net in-flux</text>
    </g>
    <g stroke="#000000" stroke-opacity="0.000" id="img-ad7ca9ca-6">
      <rect x="120.55" y="39.47" width="1.81" height="1.81" fill="#800080"/>
      <rect x="120.55" y="43.1" width="1.81" height="1.81" fill="#FF0000"/>
      <rect x="120.55" y="46.72" width="1.81" height="1.81" fill="#000000"/>
    </g>
    <g fill="#362A35" font-size="3.88" font-family="'PT Sans','Helvetica Neue','Helvetica',sans-serif" stroke="#000000" stroke-opacity="0.000" id="img-ad7ca9ca-7">
      <text x="120.55" y="36.56">Legend</text>
    </g>
  </g>
<g clip-path="url(#img-ad7ca9ca-8)">
  <g id="img-ad7ca9ca-9">
    <g pointer-events="visible" opacity="1" fill="#000000" fill-opacity="0.000" stroke="#000000" stroke-opacity="0.000" class="guide background" id="img-ad7ca9ca-10">
      <rect x="24.38" y="10.61" width="95.18" height="63.16"/>
    </g>
    <g class="guide ygridlines xfixed" stroke-dasharray="0.5,0.5" stroke-width="0.2" stroke="#D0D0E0" id="img-ad7ca9ca-11">
      <path fill="none" d="M24.38,71.77 L 119.55 71.77"/>
      <path fill="none" d="M24.38,52.05 L 119.55 52.05"/>
      <path fill="none" d="M24.38,32.33 L 119.55 32.33"/>
      <path fill="none" d="M24.38,12.61 L 119.55 12.61"/>
    </g>
    <g class="guide xgridlines yfixed" stroke-dasharray="0.5,0.5" stroke-width="0.2" stroke="#D0D0E0" id="img-ad7ca9ca-12">
      <path fill="none" d="M27.66,10.61 L 27.66 73.77"/>
      <path fill="none" d="M30.94,10.61 L 30.94 73.77"/>
      <path fill="none" d="M34.22,10.61 L 34.22 73.77"/>
      <path fill="none" d="M37.51,10.61 L 37.51 73.77"/>
      <path fill="none" d="M40.79,10.61 L 40.79 73.77"/>
      <path fill="none" d="M44.07,10.61 L 44.07 73.77"/>
      <path fill="none" d="M47.35,10.61 L 47.35 73.77"/>
      <path fill="none" d="M50.63,10.61 L 50.63 73.77"/>
      <path fill="none" d="M53.92,10.61 L 53.92 73.77"/>
      <path fill="none" d="M57.2,10.61 L 57.2 73.77"/>
      <path fill="none" d="M60.48,10.61 L 60.48 73.77"/>
      <path fill="none" d="M63.76,10.61 L 63.76 73.77"/>
      <path fill="none" d="M67.04,10.61 L 67.04 73.77"/>
      <path fill="none" d="M70.33,10.61 L 70.33 73.77"/>
      <path fill="none" d="M73.61,10.61 L 73.61 73.77"/>
      <path fill="none" d="M76.89,10.61 L 76.89 73.77"/>
      <path fill="none" d="M80.17,10.61 L 80.17 73.77"/>
      <path fill="none" d="M83.45,10.61 L 83.45 73.77"/>
      <path fill="none" d="M86.74,10.61 L 86.74 73.77"/>
      <path fill="none" d="M90.02,10.61 L 90.02 73.77"/>
      <path fill="none" d="M93.3,10.61 L 93.3 73.77"/>
      <path fill="none" d="M96.58,10.61 L 96.58 73.77"/>
      <path fill="none" d="M99.86,10.61 L 99.86 73.77"/>
      <path fill="none" d="M103.14,10.61 L 103.14 73.77"/>
      <path fill="none" d="M106.43,10.61 L 106.43 73.77"/>
      <path fill="none" d="M109.71,10.61 L 109.71 73.77"/>
      <path fill="none" d="M112.99,10.61 L 112.99 73.77"/>
      <path fill="none" d="M116.27,10.61 L 116.27 73.77"/>
    </g>
    <g class="plotpanel" id="img-ad7ca9ca-13">
      <g class="geometry" id="img-ad7ca9ca-14">
        <g class="color_RGBA{Float32}(1.0f0,0.0f0,0.0f0,1.0f0)" stroke="#FFFFFF" stroke-width="0.3" fill="#FF0000" id="img-ad7ca9ca-15">
          <use xlink:href="#img-ad7ca9ca-16" x="26.02" y="50.25"/>
          <use xlink:href="#img-ad7ca9ca-16" x="29.3" y="47.91"/>
          <use xlink:href="#img-ad7ca9ca-16" x="32.58" y="46.98"/>
          <use xlink:href="#img-ad7ca9ca-16" x="35.87" y="49.88"/>
          <use xlink:href="#img-ad7ca9ca-16" x="39.15" y="47.85"/>
          <use xlink:href="#img-ad7ca9ca-16" x="42.43" y="51.88"/>
          <use xlink:href="#img-ad7ca9ca-16" x="45.71" y="53.67"/>
          <use xlink:href="#img-ad7ca9ca-16" x="48.99" y="48.58"/>
          <use xlink:href="#img-ad7ca9ca-16" x="52.27" y="49.04"/>
          <use xlink:href="#img-ad7ca9ca-16" x="55.56" y="44.07"/>
          <use xlink:href="#img-ad7ca9ca-16" x="58.84" y="46.68"/>
          <use xlink:href="#img-ad7ca9ca-16" x="62.12" y="49.26"/>
          <use xlink:href="#img-ad7ca9ca-16" x="65.4" y="48.25"/>
          <use xlink:href="#img-ad7ca9ca-16" x="68.68" y="48.28"/>
          <use xlink:href="#img-ad7ca9ca-16" x="71.97" y="46.63"/>
          <use xlink:href="#img-ad7ca9ca-16" x="75.25" y="49.87"/>
          <use xlink:href="#img-ad7ca9ca-16" x="78.53" y="49.01"/>
          <use xlink:href="#img-ad7ca9ca-16" x="81.81" y="53.78"/>
          <use xlink:href="#img-ad7ca9ca-16" x="85.09" y="53.97"/>
          <use xlink:href="#img-ad7ca9ca-16" x="88.38" y="50.16"/>
          <use xlink:href="#img-ad7ca9ca-16" x="91.66" y="50.29"/>
          <use xlink:href="#img-ad7ca9ca-16" x="94.94" y="46.06"/>
          <use xlink:href="#img-ad7ca9ca-16" x="98.22" y="49.13"/>
          <use xlink:href="#img-ad7ca9ca-16" x="101.5" y="51.05"/>
          <use xlink:href="#img-ad7ca9ca-16" x="104.79" y="50.41"/>
          <use xlink:href="#img-ad7ca9ca-16" x="108.07" y="49.95"/>
          <use xlink:href="#img-ad7ca9ca-16" x="111.35" y="48.05"/>
          <use xlink:href="#img-ad7ca9ca-16" x="114.63" y="50.88"/>
          <use xlink:href="#img-ad7ca9ca-16" x="117.91" y="50.57"/>
        </g>
      </g>
      <g stroke-width="0.3" fill="#000000" fill-opacity="0.000" class="geometry" stroke-dasharray="none" stroke="#000000" id="img-ad7ca9ca-17">
        <path fill="none" d="M26.02,47.01 L 29.3 45.79 32.58 45.99 35.87 50.83 39.15 50.22 42.43 49.24 45.71 59.04 48.99 55.19 52.27 49.3 55.56 45.69 58.84 46.18 62.12 43.94 65.4 43.61 68.68 44.29 71.97 43.97 75.25 47.87 78.53 48.02 81.81 43.95 85.09 49.09 88.38 43.86 91.66 42.28 94.94 41.95 98.22 40.82 101.5 40.52 104.79 37.56 108.07 39.4 111.35 39.75 114.63 43.55 117.91 45.21"/>
      </g>
      <g stroke-width="0.3" fill="#000000" fill-opacity="0.000" class="geometry" stroke-dasharray="none" stroke="#FF0000" id="img-ad7ca9ca-18">
        <path fill="none" d="M26.02,50.25 L 29.3 47.91 32.58 46.98 35.87 49.88 39.15 47.85 42.43 51.88 45.71 53.67 48.99 48.58 52.27 49.04 55.56 44.07 58.84 46.68 62.12 49.26 65.4 48.25 68.68 48.28 71.97 46.63 75.25 49.87 78.53 49.01 81.81 53.78 85.09 53.97 88.38 50.16 91.66 50.29 94.94 46.06 98.22 49.13 101.5 51.05 104.79 50.41 108.07 49.95 111.35 48.05 114.63 50.88 117.91 50.57"/>
      </g>
      <g stroke-width="0.3" fill="#000000" fill-opacity="0.000" class="geometry" stroke-dasharray="none" stroke="#800080" id="img-ad7ca9ca-19">
        <path fill="none" d="M26.02,25.5 L 29.3 21.93 32.58 21.2 35.87 28.94 39.15 26.3 42.43 29.35 45.71 40.94 48.99 32 52.27 26.57 55.56 17.99 58.84 21.1 62.12 21.43 65.4 20.1 68.68 20.81 71.97 18.83 75.25 25.96 78.53 25.26 81.81 25.96 85.09 31.29 88.38 22.25 91.66 20.8 94.94 16.24 98.22 18.19 101.5 19.8 104.79 16.21 108.07 17.59 111.35 16.03 114.63 22.67 117.91 24.02"/>
      </g>
      <g class="geometry" id="img-ad7ca9ca-20">
        <g class="color_RGBA{Float32}(0.5019608f0,0.0f0,0.5019608f0,1.0f0)" stroke="#FFFFFF" stroke-width="0.3" fill="#800080" id="img-ad7ca9ca-21">
          <use xlink:href="#img-ad7ca9ca-22" x="26.02" y="25.5"/>
          <use xlink:href="#img-ad7ca9ca-22" x="29.3" y="21.93"/>
          <use xlink:href="#img-ad7ca9ca-22" x="32.58" y="21.2"/>
          <use xlink:href="#img-ad7ca9ca-22" x="35.87" y="28.94"/>
          <use xlink:href="#img-ad7ca9ca-22" x="39.15" y="26.3"/>
          <use xlink:href="#img-ad7ca9ca-22" x="42.43" y="29.35"/>
          <use xlink:href="#img-ad7ca9ca-22" x="45.71" y="40.94"/>
          <use xlink:href="#img-ad7ca9ca-22" x="48.99" y="32"/>
          <use xlink:href="#img-ad7ca9ca-22" x="52.27" y="26.57"/>
          <use xlink:href="#img-ad7ca9ca-22" x="55.56" y="17.99"/>
          <use xlink:href="#img-ad7ca9ca-22" x="58.84" y="21.1"/>
          <use xlink:href="#img-ad7ca9ca-22" x="62.12" y="21.43"/>
          <use xlink:href="#img-ad7ca9ca-22" x="65.4" y="20.1"/>
          <use xlink:href="#img-ad7ca9ca-22" x="68.68" y="20.81"/>
          <use xlink:href="#img-ad7ca9ca-22" x="71.97" y="18.83"/>
          <use xlink:href="#img-ad7ca9ca-22" x="75.25" y="25.96"/>
          <use xlink:href="#img-ad7ca9ca-22" x="78.53" y="25.26"/>
          <use xlink:href="#img-ad7ca9ca-22" x="81.81" y="25.96"/>
          <use xlink:href="#img-ad7ca9ca-22" x="85.09" y="31.29"/>
          <use xlink:href="#img-ad7ca9ca-22" x="88.38" y="22.25"/>
          <use xlink:href="#img-ad7ca9ca-22" x="91.66" y="20.8"/>
          <use xlink:href="#img-ad7ca9ca-22" x="94.94" y="16.24"/>
          <use xlink:href="#img-ad7ca9ca-22" x="98.22" y="18.19"/>
          <use xlink:href="#img-ad7ca9ca-22" x="101.5" y="19.8"/>
          <use xlink:href="#img-ad7ca9ca-22" x="104.79" y="16.21"/>
          <use xlink:href="#img-ad7ca9ca-22" x="108.07" y="17.59"/>
          <use xlink:href="#img-ad7ca9ca-22" x="111.35" y="16.03"/>
          <use xlink:href="#img-ad7ca9ca-22" x="114.63" y="22.67"/>
          <use xlink:href="#img-ad7ca9ca-22" x="117.91" y="24.02"/>
        </g>
      </g>
      <g class="geometry" id="img-ad7ca9ca-23">
        <g class="color_RGBA{Float32}(0.0f0,0.0f0,0.0f0,1.0f0)" stroke="#FFFFFF" stroke-width="0.3" fill="#000000" id="img-ad7ca9ca-24">
          <use xlink:href="#img-ad7ca9ca-25" x="26.02" y="47.01"/>
          <use xlink:href="#img-ad7ca9ca-25" x="29.3" y="45.79"/>
          <use xlink:href="#img-ad7ca9ca-25" x="32.58" y="45.99"/>
          <use xlink:href="#img-ad7ca9ca-25" x="35.87" y="50.83"/>
          <use xlink:href="#img-ad7ca9ca-25" x="39.15" y="50.22"/>
          <use xlink:href="#img-ad7ca9ca-25" x="42.43" y="49.24"/>
          <use xlink:href="#img-ad7ca9ca-25" x="45.71" y="59.04"/>
          <use xlink:href="#img-ad7ca9ca-25" x="48.99" y="55.19"/>
          <use xlink:href="#img-ad7ca9ca-25" x="52.27" y="49.3"/>
          <use xlink:href="#img-ad7ca9ca-25" x="55.56" y="45.69"/>
          <use xlink:href="#img-ad7ca9ca-25" x="58.84" y="46.18"/>
          <use xlink:href="#img-ad7ca9ca-25" x="62.12" y="43.94"/>
          <use xlink:href="#img-ad7ca9ca-25" x="65.4" y="43.61"/>
          <use xlink:href="#img-ad7ca9ca-25" x="68.68" y="44.29"/>
          <use xlink:href="#img-ad7ca9ca-25" x="71.97" y="43.97"/>
          <use xlink:href="#img-ad7ca9ca-25" x="75.25" y="47.87"/>
          <use xlink:href="#img-ad7ca9ca-25" x="78.53" y="48.02"/>
          <use xlink:href="#img-ad7ca9ca-25" x="81.81" y="43.95"/>
          <use xlink:href="#img-ad7ca9ca-25" x="85.09" y="49.09"/>
          <use xlink:href="#img-ad7ca9ca-25" x="88.38" y="43.86"/>
          <use xlink:href="#img-ad7ca9ca-25" x="91.66" y="42.28"/>
          <use xlink:href="#img-ad7ca9ca-25" x="94.94" y="41.95"/>
          <use xlink:href="#img-ad7ca9ca-25" x="98.22" y="40.82"/>
          <use xlink:href="#img-ad7ca9ca-25" x="101.5" y="40.52"/>
          <use xlink:href="#img-ad7ca9ca-25" x="104.79" y="37.56"/>
          <use xlink:href="#img-ad7ca9ca-25" x="108.07" y="39.4"/>
          <use xlink:href="#img-ad7ca9ca-25" x="111.35" y="39.75"/>
          <use xlink:href="#img-ad7ca9ca-25" x="114.63" y="43.55"/>
          <use xlink:href="#img-ad7ca9ca-25" x="117.91" y="45.21"/>
        </g>
      </g>
    </g>
  </g>
</g>
  <g class="guide ylabels" font-size="2.82" font-family="'PT Sans Caption','Helvetica Neue','Helvetica',sans-serif" fill="#6C606B" id="img-ad7ca9ca-26">
    <text x="23.38" y="71.77" text-anchor="end" dy="0.35em">0</text>
    <text x="23.38" y="52.05" text-anchor="end" dy="0.35em">1×10⁵</text>
    <text x="23.38" y="32.33" text-anchor="end" dy="0.35em">2×10⁵</text>
    <text x="23.38" y="12.61" text-anchor="end" dy="0.35em">3×10⁵</text>
  </g>
  <g font-size="3.88" font-family="'PT Sans','Helvetica Neue','Helvetica',sans-serif" fill="#564A55" stroke="#000000" stroke-opacity="0.000" id="img-ad7ca9ca-27">
    <text x="8.81" y="40.19" text-anchor="middle" dy="0.35em" transform="rotate(-90, 8.81, 42.19)">Airport Count</text>
  </g>
  <g font-size="3.88" font-family="'PT Sans','Helvetica Neue','Helvetica',sans-serif" fill="#564A55" stroke="#000000" stroke-opacity="0.000" id="img-ad7ca9ca-28">
    <text x="71.97" y="5" text-anchor="middle" dy="0.6em">Pickup Dropoff and net in-flux at JFK</text>
  </g>
</g>
<defs>
  <clipPath id="img-ad7ca9ca-8">
  <path d="M24.38,10.61 L 119.55 10.61 119.55 73.77 24.38 73.77" />
</clipPath>
  <g id="img-ad7ca9ca-16">
    <circle cx="0" cy="0" r="0.9"/>
  </g>
  <g id="img-ad7ca9ca-22">
    <circle cx="0" cy="0" r="0.9"/>
  </g>
  <g id="img-ad7ca9ca-25">
    <circle cx="0" cy="0" r="0.9"/>
  </g>
</defs>
</svg>
